/* XPM */
static char *a47ff70022684e5fb207a7818ab3f1b20YDaIDBXlUgt4shA[] = {
/* columns rows colors chars-per-pixel */
"64 64 118 2 ",
"   c #000000",
".  c #0C0000",
"X  c #120000",
"o  c #1B0000",
"O  c #210000",
"+  c #2D0000",
"@  c #6E430B",
"#  c #754201",
"$  c #794200",
"%  c #70430A",
"&  c #6C4411",
"*  c #624913",
"=  c #65451E",
"-  c #694418",
";  c #5E4727",
":  c #5D472B",
">  c #5C482D",
",  c #594732",
"<  c #624523",
"1  c #7F786E",
"2  c #7C7771",
"3  c #7D7872",
"4  c #79777A",
"5  c #797979",
"6  c #834300",
"7  c #BB730F",
"8  c #B67315",
"9  c #BA7312",
"0  c #B2741D",
"q  c #9F7335",
"w  c #977835",
"e  c #9C733B",
"r  c #95793A",
"t  c #9E793D",
"y  c #AE7525",
"u  c #A4722C",
"i  c #AB752C",
"p  c #B27323",
"a  c #A27233",
"s  c #A87631",
"d  c #A0773F",
"f  c #A0783D",
"g  c #C07203",
"h  c #C07108",
"j  c #957446",
"k  c #9D7745",
"l  c #957C46",
"z  c #9B7944",
"x  c #94744B",
"c  c #96794F",
"v  c #99784E",
"b  c #8E7655",
"n  c #8B755D",
"m  c #89785E",
"M  c #917452",
"N  c #957953",
"B  c #997950",
"V  c #A27740",
"C  c #A17841",
"Z  c #867763",
"A  c #887660",
"S  c #877863",
"D  c #8D7C60",
"F  c #85776A",
"G  c #80776E",
"H  c #82776A",
"J  c #817869",
"K  c #80786B",
"L  c #82796A",
"P  c #84786A",
"I  c #80786D",
"U  c #82786C",
"Y  c #80796F",
"T  c #807770",
"R  c #F0A12A",
"E  c #EDA131",
"W  c #E6A33B",
"Q  c #BD9D74",
"!  c #BE9D74",
"~  c #B79E7F",
"^  c #B89E7D",
"/  c #B89E7D",
"(  c #D8A556",
")  c #D5A65E",
"_  c #E5A440",
"`  c #CFA769",
"'  c #D2A763",
"]  c #C6A778",
"[  c #C3A87B",
"{  c #C4A97E",
"}  c #B49F84",
"|  c #B89F80",
" . c #B09F8B",
".. c #AFA08D",
"X. c #B4A087",
"o. c #B0A089",
"O. c #A9A091",
"+. c #AAA192",
"@. c #ABA293",
"#. c #AAA094",
"$. c #A9A097",
"%. c #ABA093",
"&. c #A4A19D",
"*. c #A8A19A",
"=. c gray63",
"-. c #A2A2A0",
";. c #A3A1A2",
":. c #A1A3A2",
">. c #A2A2A2",
",. c gray64",
"<. c #A3A1A4",
"1. c #A2A2A4",
"2. c #A3A3A5",
"3. c #A2A2A2",
"4. c #C2A980",
"5. c #E3C481",
"6. c #E2C583",
"7. c #EBEBEB",
/* pixels */
"                                                                                                                                ",
"                                                                                                                                ",
"                                                                                                                                ",
"                                                                                                                                ",
"                                                                                                                                ",
"                                                                                                                                ",
"                                                                                                                                ",
"                                                                                                                                ",
"                                                                                                                                ",
"                                            H P 3                           2 U U .                                             ",
"                                          H - - H                         . Z > ; m .                                           ",
"                                    . J H b s % Z                         . n < v x b S .                                       ",
"                                  . b v v e i # Z                         . n = k q i s Z                                       ",
"                                  . x d f a p # A                         . n = k u 7 0 b                                       ",
"                                . b j t d a p # A                         . n = k u 9 0 j J                                     ",
"                              . m N z d d a p # A                         . n = k u 9 8 e D 1                                   ",
"                              . b k e d d a p # A                         . n = k u 7 9 a N J                                   ",
"                              . x d e d d a p # A                         . n = k u 7 9 u v J                                   ",
"                              +.x d e d d a p # A                         . n = k u 9 9 u v J =.                                ",
"                              +.x d e d d a p # Z                         . n = k u 9 9 u v J =.                                ",
"                              +.x d e d d a p # Z                         . n = k u 9 9 u v J =.                                ",
"                              +.x d e d d a p # Z                         . n = k u 9 9 u v J =.                                ",
"                              #.x d e d d a p # Z                         . n = k u 9 9 u v H 1.                                ",
"                              #.x d e d d a p # A                         . n = k u 9 9 u v H 1.                                ",
"                              +.x d e d d a p # A                         . n = k u 9 9 u v J =.                                ",
"                              +.x d e d d a p # Z                         . n = k u 9 9 u v J =.                                ",
"                              #.x d e t d a p # Z                         . n = k u 9 9 u v J =.                                ",
"                              #.x C e t d a p # Z                         . n = k u 9 9 u v J =.                                ",
"                              +.x d e d d a p # Z                         . n = k u 9 9 u v J =.                                ",
"            . .     . .       +.x d e f t q i % Z                         . n = z u 8 8 u B J =.        . . . .                 ",
"          . . . . . . .       +.x d e t t O % - H                         . n = * O y p a v J =.        . . X . .               ",
"          . X 4.X X { X .     +.x d e t o 6.O = H                         . n = X 6.+ y a v J =.      . [ O O ] .               ",
"          . X ` # # ' o .     #.x d e t o r O - H                         . n < X w + i a B J =.      . ) 6 6 ( .               ",
"          . o # _ W i o .     #.x d e t z o s & Z                         . n = l o y p a B J =.      X $ E R 0 X               ",
"          . X @ 8 7 i o .     +.x f e t t q i % Z                         . n = z u 8 8 u v J =.      . # 7 g 0 X               ",
"          . X & 8 9 i o .     +.x f e d d a p # A                         . n = k u 9 9 u v J =.      . # 9 h 0 X               ",
"          . X & 8 9 i o .     +.x d e d d a p # A                         . n = k u 9 9 u v J =.      . # 9 h 0 X               ",
"          . X & 8 9 i o .     +.x d e d d a p # A                         . n = k u 9 9 u v J =.      . # 9 h 0 X               ",
"          . X & 8 9 i o .     +.x d e d t u p # A                         . n = k u 9 9 u c H =.      . # 9 h 0 X               ",
"          . X & 8 9 u o .     +.x C e d f a p # A                         . n = k u 9 9 u c H =.      . # 9 h 0 X               ",
"          . X & 8 9 i o .     +.x d e d t a p # A                         . n = k u 9 9 u v J =.      . # 9 h 0 X               ",
"          . X & 8 9 i o .     +.x d e d d a p # A                         . n = k u 9 9 u v J =.      X # 9 h p X               ",
"          . X & 8 9 i o .     +.x d e d C a i % Z                         . n < v a 9 9 u v J =.      . # 9 h p X               ",
"          . X & 8 9 u o .     +.x d e d d a # @ Z                         . n < = q 8 9 u v J =.  5   . # 9 h p X               ",
"          . X & 8 9 i o +.=.  +.x d e f d q # & Z                         . n < < t 8 9 u x J =.  5   . # 9 h p X               ",
"          . X & 8 9 i o +.=.  +.x d e f d e % - Z                         . A : < e 8 9 u v J =.  5 5 . # 9 h 0 X               ",
"          . X & 8 9 u Q #.1.  +.x d e d d e % = H                           F , : e 8 9 u B J =.  5 5 Z # 9 h 0 X               ",
"          . . - 0 8 f ^ #.1.  #.x k j v v j = n G                           T F , x i p a N U =.  5 5 Z % 0 8 i .               ",
"          . . = i y - ..*.2.  #.M v b > > n Z .                               . 3 Z = & k N G =.  5 5 Z & i i @ .               ",
"            . | $ $ ~ *.;.4   *.n : Z H H .                                       . Z n b > 3 =.  5 5 %.Q % % x .               ",
"            &.} # s X.3 5 5   3 3 G .                                               . . . 3 3 5   5 =.#.| - C x H               ",
"            *.| # i b 3 3 5                                                                       =.=.#.^ & f z %.              ",
"          . } - $ i - n 3 5 7.7.                                                              7.7.=.=...& $ p # o.=.=.          ",
"        =.*.} v % f v n 3 =.=.=.7.7.7.7.7.7.7.7.7.7.7.7.7.7.7.7.7.7.7.7.7.7.7.7.7.7.7.7.7.7.7.=.=.=.=.+.v % i V ..=.=.          ",
"        =.&.*.+.....%.*.&.=.=.=.=.=.=.=.=.=.=.=.=.=.=.=.=.=.=.=.=.=.=.=.=.=.=.=.=.=.=.=.=.=.=.=.=.=.=.&.%. .} ..*.=.=.          ",
"          =.=.=.=.=.=.=.=.=.=.=.=.=.=.=.=.=.=.=.=.=.=.=.=.=.=.=.=.=.=.=.=.=.=.=.=.=.=.=.=.=.=.=.=.=.=.=.=.=.=.=.=.=.            ",
"                                                                                                                                ",
"                                                                                                                                ",
"                                                                                                                                ",
"                                                                                                                                ",
"                                                                                                                                ",
"                                                                                                                                ",
"                                                                                                                                ",
"                                                                                                                                "
};
