/* XPM */
static char *f276391f249f4651b5ef357048737f4dGQ9JR6fzUDA9jK9p[] = {
/* columns rows colors chars-per-pixel */
"64 64 100 2 ",
"   c #050000",
".  c #0C0000",
"X  c #120000",
"o  c #1B0000",
"O  c #210000",
"+  c #2D0000",
"@  c #432600",
"#  c #6D430E",
"$  c #754201",
"%  c #794200",
"&  c #714309",
"*  c #6C4412",
"=  c #624813",
"-  c #65451E",
";  c #694418",
":  c #5E4627",
">  c #5D462B",
",  c #5C482D",
"<  c #5A4731",
"1  c #624522",
"2  c #7E786F",
"3  c #7E7771",
"4  c #7D7873",
"5  c #797779",
"6  c #797979",
"7  c #844300",
"8  c #BB730F",
"9  c #B77316",
"0  c #BA7312",
"q  c #B3741B",
"w  c #9F7336",
"e  c #977836",
"r  c #9C733C",
"t  c #957939",
"y  c #9E793D",
"u  c #AE7525",
"i  c #A5722B",
"p  c #AB752C",
"a  c #B27421",
"s  c #A27332",
"d  c #A97531",
"f  c #A0773F",
"g  c #A2783F",
"h  c #C07207",
"j  c #977444",
"k  c #9C7644",
"l  c #957B46",
"z  c #9B7944",
"x  c #94754A",
"c  c #9C7748",
"v  c #97794E",
"b  c #99794E",
"n  c #8E7556",
"m  c #8B755D",
"M  c #917551",
"N  c #957953",
"B  c #A17841",
"V  c #867763",
"C  c #867664",
"Z  c #887660",
"A  c #877862",
"S  c #827867",
"D  c #8E7C60",
"F  c #837768",
"G  c #82776A",
"H  c #827869",
"J  c #81786B",
"K  c #84786B",
"L  c #80786D",
"P  c #807970",
"I  c #F0A12A",
"U  c #EDA131",
"Y  c #E6A23C",
"T  c #BD9E74",
"R  c #B79E7F",
"E  c #B89E7D",
"W  c #D7A556",
"Q  c #D5A65E",
"!  c #E5A441",
"~  c #CFA769",
"^  c #D2A763",
"/  c #C5A778",
"(  c #C2A97F",
")  c #C4A97E",
"_  c #AF9F8D",
"`  c #B89F80",
"'  c #B09F89",
"]  c #AA9F91",
"[  c #AEA08E",
"{  c #B4A087",
"}  c #ABA092",
"|  c #ABA093",
" . c #ACA194",
".. c #A6A19C",
"X. c #A8A199",
"o. c #A3A1A2",
"O. c #A2A2A2",
"+. c gray64",
"@. c #E2C583",
"#. c #EBEBEB",
/* pixels */
"@ @ @ @ @ @ @ @ @ @ @ @ @ @ @ @ @ @ @ @             @ @ @ @ @ @ @ @ @ @ @ @             @ @ @ @ @ @ @ @ @ @ @ @ @ @ @ @ @ @ @ @ ",
"@ @ @ @ @ @ @ @ @ @ @ @ @ @ @ @ @ @ @               @ @ @ @ @ @ @ @ @ @ @ @               @ @ @ @ @ @ @ @ @ @ @ @ @ @ @ @ @ @ @ ",
"@ @ @ @ @ @ @ @ @ @ @ @ @ @ @ @ @ @ @               @ @ @ @ @ @ @ @ @ @ @ @               @ @ @ @ @ @ @ @ @ @ @ @ @ @ @ @ @ @ @ ",
"@ @ @ @ @ @ @ @ @ @ @ @ @ @ @ @ @         G K K 4   @ @ @ @ @ @ @ @ @ @ @ @   3 P P L       @ @ @ @ @ @ @ @ @ @ @ @ @ @ @ @ @ @ ",
"@ @ @ @ @ @ @ @ @ @ @ @ @ @ @ @         G ; ; ; G   @ @ @ @ @ @ @ @ @ @ @ @   C > > : m       @ @ @ @ @ @ @ @ @ @ @ @ @ @ @ @ @ ",
"@ @ @ @ @ @ @ @ @ @ @ @ @ @ @ @     G G n d & & V   @ @ @ @ @ @ @ @ @ @ @ @   m 1 1 b x n A     @ @ @ @ @ @ @ @ @ @ @ @ @ @ @ @ ",
"@ @ @ @ @ @ @ @ @ @ @ @ @ @ @     n v v r p $ $ V   @ @ @ @ @ @ @ @ @ @ @ @   m 1 1 c w p d V     @ @ @ @ @ @ @ @ @ @ @ @ @ @ @ ",
"@ @ @ @ @ @ @ @ @ @ @ @ @ @ @     n v v r p $ $ V   @ @ @ @ @ @ @ @ @ @ @ @   m 1 1 c w p d V     @ @ @ @ @ @ @ @ @ @ @ @ @ @ @ ",
"@ @ @ @ @ @ @ @ @ @ @ @ @       . x f f s a $ $ Z   @ @ @ @ @ @ @ @ @ @ @ @   m - - k i 0 q n         @ @ @ @ @ @ @ @ @ @ @ @ @ ",
"@ @ @ @ @ @ @ @ @ @ @ @ @       m j y f s a $ $ Z   @ @ @ @ @ @ @ @ @ @ @ @   m - - k i 0 q x S       @ @ @ @ @ @ @ @ @ @ @ @ @ ",
"@ @ @ @ @ @ @ @ @ @ @ @       m N k f f s a $ $ Z   @ @ @ @ @ @ @ @ @ @ @ @   m - - k i 0 9 r D 2       @ @ @ @ @ @ @ @ @ @ @ @ ",
"@ @ @ @ @ @ @ @ @ @ @ @       m N k f f s a $ $ Z   @ @ @ @ @ @ @ @ @ @ @ @   m - - k i 0 9 r D 2       @ @ @ @ @ @ @ @ @ @ @ @ ",
"@ @ @ @ @ @ @ @ @ @ @ @       M k r f f s a $ $ Z   @ @ @ @ @ @ @ @ @ @ @ @   m - - k i 8 0 s N H       @ @ @ @ @ @ @ @ @ @ @ @ ",
"@ @ @ @ @ @ @ @ @ @ @ @       x f r f f s a $ $ Z   @ @ @ @ @ @ @ @ @ @ @ @   m - - k i 8 0 i v H       @ @ @ @ @ @ @ @ @ @ @ @ ",
"@ @ @ @ @ @ @ @ @ @ @     } } x f r f f s a $ $ Z   @ @ @ @ @ @ @ @ @ @ @ @   m - - k i 0 0 i v H O.O.    @ @ @ @ @ @ @ @ @ @ @ ",
"@ @ @ @ @ @ @ @ @ @ @     } } x f r f f s a $ $ V   @ @ @ @ @ @ @ @ @ @ @ @   m - - k i 0 0 i v H O.O.    @ @ @ @ @ @ @ @ @ @ @ ",
"@ @ @ @ @ @ @ @ @ @ @     } } x f r f f s a $ $ V   @ @ @ @ @ @ @ @ @ @ @ @   m - - k i 0 0 i v H O.O.    @ @ @ @ @ @ @ @ @ @ @ ",
"@ @ @ @ @ @ @ @ @ @ @     } } x f r f f s a $ $ V   @ @ @ @ @ @ @ @ @ @ @ @   m - - k i 0 0 i v H O.O.    @ @ @ @ @ @ @ @ @ @ @ ",
"@ @ @ @ @ @ @ @ @ @ @      . .x f r f f s a $ $ V   @ @ @ @ @ @ @ @ @ @ @ @   m - - k i 0 0 i v G O.O.    @ @ @ @ @ @ @ @ @ @ @ ",
"@ @ @ @ @ @ @ @ @ @ @     } } x f r f f s a $ $ V   @ @ @ @ @ @ @ @ @ @ @ @   m - - k i 0 0 i b G O.O.    @ @ @ @ @ @ @ @ @ @ @ ",
"@ @ @ @ @ @ @ @ @ @ @     } } x f r f f s a $ $ Z   @ @ @ @ @ @ @ @ @ @ @ @   m - - k i 0 0 i b G O.O.    @ @ @ @ @ @ @ @ @ @ @ ",
"@ @ @ @ @ @ @ @ @ @ @     } } x f r f f s a $ $ Z   @ @ @ @ @ @ @ @ @ @ @ @   m - - k i 0 0 i b G O.O.    @ @ @ @ @ @ @ @ @ @ @ ",
"@ @ @ @ @ @ @ @ @ @ @     } } x f r f f s a $ $ Z   @ @ @ @ @ @ @ @ @ @ @ @   m - - k i 0 0 i v G O.O.    @ @ @ @ @ @ @ @ @ @ @ ",
"@ @ @ @ @ @ @ @ @ @ @     } } x f r f f s a $ $ Z   @ @ @ @ @ @ @ @ @ @ @ @   m - - k i 0 0 i v H O.O.    @ @ @ @ @ @ @ @ @ @ @ ",
"@ @ @ @ @ @ @ @ @ @ @     } } x f r y f s a $ $ V   @ @ @ @ @ @ @ @ @ @ @ @   m - - k i 0 0 i v H O.O.    @ @ @ @ @ @ @ @ @ @ @ ",
"@ @ @ @ @ @ @ @ @ @ @     } } x f r y f s a $ $ V   @ @ @ @ @ @ @ @ @ @ @ @   m - - k i 0 0 i v H O.O.    @ @ @ @ @ @ @ @ @ @ @ ",
"@ @ @ @ @ @ @ @ @ @ @     } } x B r y f s a $ $ V   @ @ @ @ @ @ @ @ @ @ @ @   m - - k i 0 0 i v H O.O.    @ @ @ @ @ @ @ @ @ @ @ ",
"@ @ @ @ @ @ @ @ @ @ @     } } x f r f f s a $ $ Z   @ @ @ @ @ @ @ @ @ @ @ @   m - - k i 0 0 i v H O.O.    @ @ @ @ @ @ @ @ @ @ @ ",
"@ @ @ @ @ @ @ @ @ @ @     } } x f r y y w p & & V   @ @ @ @ @ @ @ @ @ @ @ @   m - - z i 9 9 i b H O.O.    @               @ @ @ ",
"@ @ @ . . .     . . @     } } x f r y y O & ; ; G   @ @ @ @ @ @ @ @ @ @ @ @   m - - = O u a s v H O.O.    @   . X X . .   @ @ @ ",
"@ @ @ . . .     . . @     } } x f r y y O & ; ; G   @ @ @ @ @ @ @ @ @ @ @ @   m - - = O u a s v H O.O.    @   . X X . .   @ @ @ ",
"@ @ @ X ( ( X X ) X @     } } x f r y o @.O - - G   @ @ @ @ @ @ @ @ @ @ @ @   m - - X @.+ u w v H O.O.    @   ( O O / /   @ @ @ ",
"@ @ @ X ~ ~ $ $ ^ o @     } } x f r y o t O ; ; G   @ @ @ @ @ @ @ @ @ @ @ @   m - - X e + p s b H O.O.    @ . Q 7 7 W W . @ @ @ ",
"@ @ @ X $ $ ! Y p o @     } } x f r y z o d * * G   @ @ @ @ @ @ @ @ @ @ @ @   m - - l O u a s b H O.O.    @ X % U I q q X @ @ @ ",
"@ @ @ X $ $ ! Y p o @     } } x f r y z o d * * G   @ @ @ @ @ @ @ @ @ @ @ @   m - - l O u a s b H O.O.    @ X % U I q q X @ @ @ ",
"@ @ @ X # # 9 0 p o @     } } x f r y y w p & & V   @ @ @ @ @ @ @ @ @ @ @ @   m - - z i 9 9 i v H O.O.    @ . $ 8 h q q X @ @ @ ",
"@ @ @ X # # 9 0 p o @     } } x f r f f s a $ $ Z   @ @ @ @ @ @ @ @ @ @ @ @   m - - k i 0 0 i v H O.O.    @ . $ 0 h a a X @ @ @ ",
"@ @ @ X # # 9 0 p o @     } } x f r f f s a $ $ Z   @ @ @ @ @ @ @ @ @ @ @ @   m - - k i 0 0 i v H O.O.    @ . $ 9 h a a X @ @ @ ",
"@ @ @ X # # 9 0 p o @     } } x f r f f s a $ $ Z   @ @ @ @ @ @ @ @ @ @ @ @   m - - k i 0 0 i v G O.O.    @ . $ 9 h a a X @ @ @ ",
"@ @ @ X # # 9 0 p o @     } } x f r f f s a $ $ Z   @ @ @ @ @ @ @ @ @ @ @ @   m - - k i 0 0 i v G O.O.    @ . $ 9 h a a X @ @ @ ",
"@ @ @ X # # 9 0 p o @     } } x f r f y s a $ $ Z   @ @ @ @ @ @ @ @ @ @ @ @   m - - k i 0 0 i v G O.O.    @ . $ 9 h a a X @ @ @ ",
"@ @ @ X # # 9 0 p o @     } } x B r f f s a $ $ Z   @ @ @ @ @ @ @ @ @ @ @ @   m - - k i 0 0 i v G O.O.    @ . $ 9 h a a X @ @ @ ",
"@ @ @ X # # 9 0 p o @     ] ] x f r f y s a $ $ Z   @ @ @ @ @ @ @ @ @ @ @ @   m - - k i 0 0 i v G O.O.    @ . $ 9 h a a X @ @ @ ",
"@ @ @ X # # 9 0 p o @     ] ] x f r f y s a $ $ Z   @ @ @ @ @ @ @ @ @ @ @ @   m - - k i 0 0 i v G O.O.    @ . $ 9 h a a X @ @ @ ",
"@ @ @ X * # 9 0 p o @     } } x f r f f s a $ $ Z   @ @ @ @ @ @ @ @ @ @ @ @   m - - k i 0 0 i v H O.O.    @ . $ 9 h a a X @ @ @ ",
"@ @ @ X # # 9 0 p o @     } } x f r f B s p & & V   @ @ @ @ @ @ @ @ @ @ @ @   m 1 1 b s 0 0 i v H O.O.      . $ 0 h a a X @ @ @ ",
"@ @ @ X # # 9 0 p o       } } x f r f f s % # # C   @ @ @ @ @ @ @ @ @ @ @ @   m 1 1 - w 9 0 i v H O.O.  6   . $ 9 h a a X @ @ @ ",
"@ @ @ X # # 9 0 p o } O.  } } x f r f f w $ * * C   @ @ @ @ @ @ @ @ @ @ @ @   m 1 1 1 r 9 8 i v H O.O.  6   . $ 9 h a q X @ @ @ ",
"@ @ @ X # # 9 0 p o } O.  } } x f r f f w $ * * C   @ @ @ @ @ @ @ @ @ @ @ @   m 1 1 1 r 9 0 i v H O.O.  6   . $ 9 h a a X @ @ @ ",
"@ @ @ X # # 9 0 p o } O.  } } x f r g f r & ; ; G   @ @ @ @ @ @ @ @ @ @ @ @   Z > > 1 r 9 0 i v H O.O.  6 6 . $ 0 h a a X @ @ @ ",
"@ @ @ X # # 9 0 p T } O.   . .x y r f f r # - - G   @ @ @ @ @ @ @ @ @ @ @ @   K < < > r 9 0 i b H O.O.  6 6 V $ 9 h a a X @ @ @ ",
"@ @ @ X * * q 9 s E } O.  } } x k j c c x - n n L   @ @ @ @ @ @ @ @ @ @ @ @   3 K K < x p a s N H O.O.  6 6 V & q 9 p p X @ @ @ ",
"@ @ @   - - p u ; _ ..O.  } } M b n , , m C         @ @ @ @ @ @ @ @ @ @ @ @         3 V ; * j N H O.O.  6 6 C * p p # #   @ @ @ ",
"@ @ @   - - p u ; _ ..O.  } } M b n , , m C         @ @ @ @ @ @ @ @ @ @ @ @         3 V ; * j N H O.O.  6 6 C * p p # #   @ @ @ ",
"@ @     ` ` % % R X.O.5   X.X.m > C G G         @ @ @ @ @ @ @ @ @ @ @ @ @ @ @ @         C n n , 3 O.O.  6 6 } T & & x x     @ @ ",
"@ @   ..' ' $ d { 4 6 6   4 4 3 2         @ @ @ @ @ @ @ @ @ @ @ @ @ @ @ @ @ @ @ @ @ @         3 4 6 6   6 O.} ` ; B x x G   @ @ ",
"@ @   X.` ` $ p n 3 4 6             @ @ @ @ @ @ @ @ @ @ @ @ @ @ @ @ @ @ @ @ @ @ @ @ @ @ @ @             O.O.} E * s k k [       ",
"@ @   X.` ` $ p n 3 4 6             @ @ @ @ @ @ @ @ @ @ @ @ @ @ @ @ @ @ @ @ @ @ @ @ @ @ @ @             O.O.} E * s k k [       ",
"      ' * * % p * m 3 6 #.#.#.                                                                    #.#.#.O.O.[ * % a $ $ _ O.O.  ",
"  O.X.' b b & f b m 3 O.O.O.O.#.#.#.#.#.#.#.#.#.#.#.#.#.#.#.#.#.#.#.#.#.#.#.#.#.#.#.#.#.#.#.#.#.#.O.O.O.O.O.} b & p g g [ O.O.  ",
"  O...X.} } [ [ } X...O.O.O.O.O.O.O.O.O.O.O.O.O.O.O.O.O.O.O.O.O.O.O.O.O.O.O.O.O.O.O.O.O.O.O.O.O.O.O.O.O.O.O... .' ' [ [ X.O.O.  ",
"    O.O.O.O.O.O.O.O.O.O.O.O.O.O.O.O.O.O.O.O.O.O.O.O.O.O.O.O.O.O.O.O.O.O.O.O.O.O.O.O.O.O.O.O.O.O.O.O.O.O.O.O.O.O.O.O.O.O.O.O.    ",
"    O.O.O.O.O.O.O.O.O.O.O.O.O.O.O.O.O.O.O.O.O.O.O.O.O.O.O.O.O.O.O.O.O.O.O.O.O.O.O.O.O.O.O.O.O.O.O.O.O.O.O.O.O.O.O.O.O.O.O.O.    ",
"                                                                                                                                "
};
