/* XPM */
static char *_0365ded3f224197dc651f833fe5777bn6CESxq3YATSa9NZ[] = {
/* columns rows colors chars-per-pixel */
"128 128 89 1 ",
"  c #010100",
". c #0A0200",
"X c #120100",
"o c #432600",
"O c #7C4600",
"+ c #724900",
"@ c #784A00",
"# c #7B7B6D",
"$ c #797979",
"% c #844300",
"& c #AC7C04",
"* c #A77E0D",
"= c #AC7B0A",
"- c #B77705",
"; c #BA7602",
": c #B37A02",
"> c #B97900",
", c #B1790B",
"< c #A57E13",
"1 c #A97A17",
"2 c #A77A1E",
"3 c #AD781A",
"4 c #B17714",
"5 c #C47400",
"6 c #CA7300",
"7 c #807C56",
"8 c #F89F15",
"9 c #EEA907",
"0 c #E5AC0E",
"q c #EEA80C",
"w c #F4A507",
"e c #FAA307",
"r c #F4A509",
"t c #FAA10B",
"y c #E4AC14",
"u c #EEA51E",
"i c #E2AC1B",
"p c #F6A213",
"a c #F9A014",
"s c #F2A21D",
"d c #F9A118",
"f c #EEA423",
"g c #E0AA26",
"h c #E6A52E",
"j c #ECA32B",
"k c #E2A82C",
"l c #F1A223",
"z c #E6A433",
"x c #ECA231",
"c c #FFC327",
"v c #FFC52A",
"b c #FEC82C",
"n c #FDC534",
"m c #FDC53C",
"M c #A9A57F",
"N c #FFDC5E",
"B c #FFD664",
"V c #FFDA68",
"C c #FFDA71",
"Z c #A4A397",
"A c #A5A498",
"S c #A2A2A3",
"D c #FFEB84",
"F c #FFED8D",
"G c #FFEC92",
"H c #FFEC9B",
"J c #FFEA9D",
"K c #FFEE9F",
"L c #FFECA1",
"P c #FFEDA6",
"I c #FFEDA8",
"U c #FFEBAC",
"Y c #FEEFAE",
"T c #FFF0A8",
"R c #FEEDB4",
"E c #FDEEB6",
"W c #FBEEBB",
"Q c #FDEEB9",
"! c #F8EFBE",
"~ c #F5F0BE",
"^ c #F8F0B9",
"/ c #F3EFC9",
"( c #F5F0C1",
") c #ECECDF",
"_ c #EDECDF",
"` c #EEEDE0",
"' c gray92",
"] c #FFFFF3",
"[ c white",
/* pixels */
"oooooooooooooooooooooooooooooooooooooooooooooooooooooooooooooooooooooooooooooooooooooooooooooooooooooooooooooooooooooooooooooooo",
"oooooooooooooooooooooooooooooooooooooooooooooooooooooooooooooooooooooooooooooooooooooooooooooooooooooooooooooooooooooooooooooooo",
"oooooooooooooooooooooooooooooooooooooooooooooooooooooooooooooooooooooooooooooooooooooooooooooooooooooooooooooooooooooooooooooooo",
"oooooooooooooooooooooooooooooooooooooooooooooooooooooooooooooooooooooooooooooooooooooooooooooooooooooooooooooooooooooooooooooooo",
"oooooooooooooooooooooooooooooooooooooooooooooooooooooooooooooooooooooooooooooooooooooooooooooooooooooooooooooooooooooooooooooooo",
"oooooooooooooooooooooooooooooooooooooooooooooooooooooooooooooooooooooooooooooooooooooooooooooooooooooooooooooooooooooooooooooooo",
"oooooooooooooooooooooooooooooooooooooooooooooooooooooooooooooooooooooooooooooooooooooooooooooooooooooooooooooooooooooooooooooooo",
"oooooooooooooooooooooooooooooooooooooooooooooooooooooooooooooooooooooooooooooooooooooooooooooooooooooooooooooooooooooooooooooooo",
"oooooooooooooooooooooooooooooooooooooooooooooooooooooooooooooooooooooooooooooooooooooooooooooooooooooooooooooooooooooooooooooooo",
"oooooooooooooooooooooooooooooooooooooooooooooooooooooooooooooooooooooooooooooooooooooooooooooooooooooooooooooooooooooooooooooooo",
"oooooooooooooooooooooooooooooooooooooooooooooooooooooooooooooooooooooooooooooooooooooooooooooooooooooooooooooooooooooooooooooooo",
"oooooooooooooooooooooooooooooooooooooooooooooooooooooooooooooooooooooooooooooooooooooooooooooooooooooooooooooooooooooooooooooooo",
"oooooooooooooooooooooooooooooooooooooooooooooooooooooooooooooooooooooooooooooooooooooooooooooooooooooooooooooooooooooooooooooooo",
"oooooooooooooooooooooooooooooooooooooooooooooooooooooooooooooooooooooooooooooooooooooooooooooooooooooooooooooooooooooooooooooooo",
"oooooooooooooooooooooooooooooooooooooooooooooooooooooooooooooooooooooooooooooooooooooooooooooooooooooooooooooooooooooooooooooooo",
"oooooooooooooooooooooooooooooooooooooooooooooooooooooooooooooooooooooooooooooooooooooooooooooooooooooooooooooooooooooooooooooooo",
"oooooooooooooooooooooooooooooooooooooooooooooooooooooooooooooooooooooooooooooooooooooooooooooooooooooooooooooooooooooooooooooooo",
"oooooooooooooooooooooooooooooooooooooooooooooooooooooooooooooooooooooooooooooooooooooooooooooooooooooooooooooooooooooooooooooooo",
"oooooooooooooooooooooooooooooooooooooooooooooooooooooooooooooooooooooooooooooooooooooooooooooooooooooooooooooooooooooooooooooooo",
"oooooooooooooooooooooooooooooooooooooooooooooooooooooooooooooooooooooooooooooooooooooooooooooooooooooooooooooooooooooooooooooooo",
"oooooooooooooooooooooooooooooooooooooooooooooooooooooooooooooooooooooooooooooooooooooooooooooooooooooooooooooooooooooooooooooooo",
"oooooooooooooooooooooooooooooooooooooooooooooooooooooooooooooooooooooooooooooooooooooooooooooooooooooooooooooooooooooooooooooooo",
"oooooooooooooooooooooooooooooooooooooooooooooooooooooooooooooooooooooooooooooooooooooooooooooooooooooooooooooooooooooooooooooooo",
"oooooooooooooooooooooooooooooooooooooooooooooooooooooooooooooooooooooooooooooooooooooooooooooooooooooooooooooooooooooooooooooooo",
"oooooooooooooooooooooooooooooooooooooooooooooooooooooooooooooooooooooooooooooooooooooooooooooooooooooooooooooooooooooooooooooooo",
"oooooooooooooooooooooooooooooooooooooooooooooooooooooooooooooooooooooooooooooooooooooooooooooooooooooooooooooooooooooooooooooooo",
"oooooooooooooooooooooooooooooooooooooooooooooooooooooooooooooooooooooooooooooooooooooooooooooooooooooooooooooooooooooooooooooooo",
"oooooooooooooooooooooooooooooooooooooooooooooooooooooooooooooooooooooooooooooooooooooooooooooooooooooooooooooooooooooooooooooooo",
"oooooooooooooooooooooooooooooooooooooooooooooooooooooooooooooooooooooooooooooooooooooooooooooooooooooooooooooooooooooooooooooooo",
"oooooooooooooooooooooooooooooooooooooooooooooooooooooooooooooooooooooooooooooooooooooooooooooooooooooooooooooooooooooooooooooooo",
"oooooooooooooooooooooooooooooooooooooooooooooooooooooooooooooooooooooooooooooooooooooooooooooooooooooooooooooooooooooooooooooooo",
"oooooooooooooooooooooooooooooooooooooooooooooooooooooooooooooooooooooooooooooooooooooooooooooooooooooooooooooooooooooooooooooooo",
"oooooooooooooooooooooooooooooooooooooooooooooooooooooooooooooooooooooooooooooooooooooooooooooooooooooooooooooooooooooooooooooooo",
"oooooooooooooooooooooooooooooooooooooooooooooooooooooooooooooooooooooooooooooooooooooooooooooooooooooooooooooooooooooooooooooooo",
"oooooooooooooooooooooooooooooooooooooooooooooooooooooooooooooooooooooooooooooooooooooooooooooooooooooooooooooooooooooooooooooooo",
"oooooooooooooooooooooooooooooooooooooooooooooooooooooooooooooooooooooooooooooooooooooooooooooooooooooooooooooooooooooooooooooooo",
"ooooooooooooooooooooooooooooooooooooooooooooooooooooSSSSSSSSSSSSSSSSSSSSSSSSSSoooooooooooooooooooooooooooooooooooooooooooooooooo",
"ooooooooooooooooooooooooooooooooooooooooooooooooooooSSSSSSSSSSSSSSSSSSSSSSSSSSoooooooooooooooooooooooooooooooooooooooooooooooooo",
"ooooooooooooooooooooooooooooooooooooooooooooooooooSSSS      SSSS            SSSSoooooooooooooooooooooooooooooooooooooooooooooooo",
"ooooooooooooooooooooooooooooooooooooooooooooooooooSSSS      SSSS            SSSSoooooooooooooooooooooooooooooooooooooooooooooooo",
"ooooooooooooooooooooooooooooooooooooooooooooooSSSSSS  ..((........~~....~~..  SSSSSSoooooooooooooooooooooooooooooooooooooooooooo",
"ooooooooooooooooooooooooooooooooooooooooooooooSSSSSS  ..((........~~....~~..  SSSSSSoooooooooooooooooooooooooooooooooooooooooooo",
"ooooooooooooooooooooooooooooooooooooooooooooooSS  ....EEKKHHPPIILLLLIIIILLYY....  SSoooooooooooooooooooooooooooooooooooooooooooo",
"ooooooooooooooooooooooooooooooooooooooooooooooSS  ....EEKKHHPPIILLLLIIIILLYY....  SSoooooooooooooooooooooooooooooooooooooooooooo",
"ooooooooooooooooooooooooooooooooooooooooooooooSS..!!PPGG,,--44444444443322GGLL^^  SSoooooooooooooooooooooooooooooooooooooooooooo",
"ooooooooooooooooooooooooooooooooooooooooooooooSS..!!PPGG,,--44444444443322GGLL^^  SSoooooooooooooooooooooooooooooooooooooooooooo",
"ooooooooooooooooooooooooooooooooooooooooooooooSS..YYFF::ssddjjBBBBxxBBxxCC11FFPP..SSoooooooooooooooooooooooooooooooooooooooooooo",
"ooooooooooooooooooooooooooooooooooooooooooooooSS..YYFF::ssddjjBBBBxxBBxxCC11FFPP..SSoooooooooooooooooooooooooooooooooooooooooooo",
"ooooooooooooooooooooooooooooooooooooooooooooooSS..II,,ssttaallxxxxjjllffzzCC<<KK..SSoooooooooooooooooooooooooooooooooooooooooooo",
"ooooooooooooooooooooooooooooooooooooooooooooooSS..II,,ssttaallxxxxjjllffzzCC<<KK..SSoooooooooooooooooooooooooooooooooooooooooooo",
"ooooooooooooooooooooooooooooooooooooooooooooooSS..PP--aattpp%%OOOO%%%%jjhhVV==JJ..SSoooooooooooooooooooooooooooooooooooooooooooo",
"ooooooooooooooooooooooooooooooooooooooooooooooSS..PP--aattpp%%OOOO%%%%jjhhVV==JJ..SSoooooooooooooooooooooooooooooooooooooooooooo",
"ooooooooooooooooooooooooooooooooooooooooooooooSS..PP--88aa;;DDKKPPLLGGOOkkNN==JJ..SSoooooooooooooooooooooooooooooooooooooooooooo",
"ooooooooooooooooooooooooooooooooooooooooooooooSS..PP--88aa5;DDKKPPLLGGOOkkNN==JJ..SSoooooooooooooooooooooooooooooooooooooooooooo",
"ooooooooooooooooooooooooooooooooooooooooooooooSS..PP--dddd--HH......PP++ggmm==JJ..SSooSSSSSSoooooooooooooooooooooooooooooooooooo",
"ooooooooooooooooooooooooooooooooooooooooooooooSS..PP--dddd--HH......PP++ggmm==JJ..SSooSSSSSSoooooooooooooooooooooooooooooooooooo",
"ooooooooooooooooooooooooooooooooooooSSSSSSSSSSSS..PP--dddd--LL......UU++iinn&&JJ..SSSSSS  SSSSoooooooooooooooooooooooooooooooooo",
"ooooooooooooooooooooooooooooooooooooSSSSSSSSSSSS..PP--dddd--LL......UU++iinn&&JJ..SSSSSS  SSSSoooooooooooooooooooooooooooooooooo",
"ooooooooooooooooooooooooooooooooooooSS      SSSS..PP--dddd;;HHXX..XXJJ@@yybb&&JJ..SSSS      SSoooooooooooooooooooooooooooooooooo",
"ooooooooooooooooooooooooooooooooooooSS      SSSS..PP--dddd;;HHXX..XXJJ@@yybb&&JJ..SSSS      SSoooooooooooooooooooooooooooooooooo",
"ooooooooooooooooooooooooooooooooooSSSS  SS  SSSS..PP--ddaa55DDGGGGGGDD::00bb&&JJ..SSSS  SS  SSoooooooooooooooooooooooooooooooooo",
"ooooooooooooooooooooooooooooooooooSSSS  SS  SSSS..PP--ddaa55DDGGGGGGDD::00bb&&JJ..SSSS  SS  SSoooooooooooooooooooooooooooooooooo",
"ooooooooooooooooooooooooooooooooooSS    SS  SSSS..YY,,uuppdd--,,::::--ffyynn**LL..SSSS  SS  SSSSoooooooooooooooooooooooooooooooo",
"ooooooooooooooooooooooooooooooooooSS    SS  SSSS..YY,,uuppdd--,,::::--ffyynn**LL..SSSS  SS  SSSSoooooooooooooooooooooooooooooooo",
"ooooooooooooooooooooooooooooooooooSS    SS  SSSS..WWGG::ssddssllllssssuumm&&GGEE..SSSS  SS    SSoooooooooooooooooooooooooooooooo",
"ooooooooooooooooooooooooooooooooooSS    SS  SSSS..WWGG::ssddsslfllssssuumm&&GGEE..SSSS  SS    SSoooooooooooooooooooooooooooooooo",
"ooooooooooooooooooooooooooooooooooSS  SSSS  SSSS  ..IIFF--555566666666;;&&FFII..  SSSS  SSSS  SSoooooooooooooooooooooooooooooooo",
"ooooooooooooooooooooooooooooooooooSS  SSSS  SSSS  ..IIFF--555566666666;;&&FFII..  SSSS  SSSS  SSoooooooooooooooooooooooooooooooo",
"ooooooooooooooooooooooooooooooooooSS  SS          ....EEGGOOflddddssjjOOGGIT..            SS  SSoooooooooooooooooooooooooooooooo",
"ooooooooooooooooooooooooooooooooooSS  SS          ....EEGGOOflddddssjjOOGGTT..            SS  SSoooooooooooooooooooooooooooooooo",
"ooooooooooooooooooooooooooooooooooSS  SS    SSSS  SS  ..YYFF;;666655>>DDLL..  SS  SSSS    SS  SSoooooooooooooooooooooooooooooooo",
"ooooooooooooooooooooooooooooooooooSS  SS    SSSS  SS  ..YYFF;;666655>>DDLL..  SS  SSSS    SS  SSoooooooooooooooooooooooooooooooo",
"ooooooooooooooooooooooooooooooooooSS  SS    SS    SS  ....JJ--aarrvv::DDTT..  SS    SS    SS  SSoooooooooooooooooooooooooooooooo",
"ooooooooooooooooooooooooooooooooooSS  SS    SS    SS  ....JJ--aarrvv::DDTT..  SS    SS    SS  SSoooooooooooooooooooooooooooooooo",
"ooooooooooooooooooooooooooooooooooSS  SS    SS  SS    ####PP--aawwqqmm<<II77    SS  SS    SS  SSoooooooooooooooooooooooooooooooo",
"ooooooooooooooooooooooooooooooooooSS  SS    SS  SS    ##7#PP--aawwqqmm<<II77    SS  SS    SS  SSoooooooooooooooooooooooooooooooo",
"ooooooooooooooooooooooooooooooooooSS  SS    SS      $$__//LP--pawwqqmm<<II//##      SS    SS  SSoooooooooooooooooooooooooooooooo",
"ooooooooooooooooooooooooooooooooooSS  SS    SS      $$__//LL--ppwwqqmm<<II//##      SS    SS  SSoooooooooooooooooooooooooooooooo",
"ooooooooooooooooooooooooooooooooooSS  SS    SS    SS''``77LL--ppwwcc::DDII//__SS    SS    SS  SSoooooooooooooooooooooooooooooooo",
"ooooooooooooooooooooooooooooooooooSS  SS    SS    SS''``77LL--ppwwcc::DDII//__SS    SS    SS  SSoooooooooooooooooooooooooooooooo",
"ooooooooooooooooooooooooooooooooooSS  SS    SSSSSS[[[[ZZ..PP--aawwcc::DDIIMM]][[SSSSSS    SS  SSoooooooooooooooooooooooooooooooo",
"ooooooooooooooooooooooooooooooooooSS  SS    SSSSSS[[[[ZZ..PP--pawwcc::DDIIMM]][[SSSSSS    SS  SSoooooooooooooooooooooooooooooooo",
"ooooooooooooooooooooooooooooooooooSS  SS    SS[[[[[[SS  ..PP--aawwqqmm<<II..ZZ[[[[[[SS    SS  SSoooooooooooooooooooooooooooooooo",
"ooooooooooooooooooooooooooooooooooSS  SS    SS[[[[[[SS  ..PP--ppwwqqmm<<II..ZZ[[[[[[SS    SS  SSoooooooooooooooooooooooooooooooo",
"ooooooooooooooooooooooooooooooooooSS  SS    SS[[[[SSSS  ..PP--ppwwqqmm<<II..AASS[[[[SS    SS  SSoooooooooooooooooooooooooooooooo",
"ooooooooooooooooooooooooooooooooooSS  SS    SS[[[[SSSS  ..PP--ppwwqqmm<<II..AASS[[[[SS    SS  SSoooooooooooooooooooooooooooooooo",
"ooooooooooooooooooooooooooooooooooSS  SSSSSS[[SSSS      ..PP--ppwwcc::DDEE..    SSSS[[SSSSSS  SSoooooooooooooooooooooooooooooooo",
"ooooooooooooooooooooooooooooooooooSS  SSSSSS[[SSSS      ..PP--ppwwcc::DDYE..    SSSS[[SSSSSS  SSoooooooooooooooooooooooooooooooo",
"ooooooooooooooooooooooooooooooooooSS  SS[[[[SSSS    SSSS..PP--pp99cc&&GG..        SSSS[[[[SS  SSoooooooooooooooooooooooooooooooo",
"ooooooooooooooooooooooooooooooooooSS  SS[[[[SSSS    SSSS..PP--pp99cc&&GG..        SSSS[[[[SS  SSoooooooooooooooooooooooooooooooo",
"ooooooooooooooooooooooooooooooooooSS  SS[[[[SS    SSSSSS..PP--ppwwcc::FFQQ..SSSS    SS[[[[SS  SSoooooooooooooooooooooooooooooooo",
"ooooooooooooooooooooooooooooooooooSS  SS[[[[SS    SSSSSS..PP--ppwwcc::FFQQ. SSSS    SS[[[[SS  SSoooooooooooooooooooooooooooooooo",
"ooooooooooooooooooooooooooooooooooSS  SS[[SS  SSSSSSooSS..PP--aaeerrnn**YY..SSSSSS    SS[[SS  SSoooooooooooooooooooooooooooooooo",
"ooooooooooooooooooooooooooooooooooSS  SS[[SS  SSSSSSooSS..PP--aaeerrnn**YY..SSSSSS    SS[[SS  SSoooooooooooooooooooooooooooooooo",
"ooooooooooooooooooooooooooooooooooSS    SSSS  SSooooooSS..PP--ddeerrnn**YY..SSooSSSS  SSSS    SSoooooooooooooooooooooooooooooooo",
"ooooooooooooooooooooooooooooooooooSS    SSSS  SSooooooSS..PP--ddeerrnn**YY..SSooSSSS  SSSS    SSoooooooooooooooooooooooooooooooo",
"ooooooooooooooooooooooooooooooooooSSSS        SSooooooSS..II,,uuqqcc::FFQQ..SSooooSSSS      SSSSoooooooooooooooooooooooooooooooo",
"ooooooooooooooooooooooooooooooooooSSSS        SSooooooSS..II,,uuqqcc::FFQQ..SSooooSSSS      SSSSoooooooooooooooooooooooooooooooo",
"ooooooooooooooooooooooooooooooooooooSSSSSSSSSSSSooooooSS..EEDD::iinn==HH..  SSooooooSSSS  SSSSoooooooooooooooooooooooooooooooooo",
"ooooooooooooooooooooooooooooooooooooSSSSSSSSSSSSooooooSS..EEDD::iinn==HH..  SSooooooSSSS  SSSSoooooooooooooooooooooooooooooooooo",
"ooooooooooooooooooooooooooooooooooooooooooooooooooooooSS  ..HH**&&&&<<KK..SSSSooooooooSSSSSSoooooooooooooooooooooooooooooooooooo",
"ooooooooooooooooooooooooooooooooooooooooooooooooooooooSS  ..HH**&&&&<<KK..SSSSooooooooSSSSSSoooooooooooooooooooooooooooooooooooo",
"ooooooooooooooooooooooooooooooooooooooooooooooooooooooSSSS..EEKKKJJJLLEE..SSoooooooooooooooooooooooooooooooooooooooooooooooooooo",
"ooooooooooooooooooooooooooooooooooooooooooooooooooooooSSSS..EEKKKKJJLLEE..SSoooooooooooooooooooooooooooooooooooooooooooooooooooo",
"ooooooooooooooooooooooooooooooooooooooooooooooooooooooooSS  ............  SSoooooooooooooooooooooooooooooooooooooooooooooooooooo",
"ooooooooooooooooooooooooooooooooooooooooooooooooooooooooSS  ............  SSoooooooooooooooooooooooooooooooooooooooooooooooooooo",
"ooooooooooooooooooooooooooooooooooooooooooooooooooooooooSSSSSSSSSSSSSSSSSSSSoooooooooooooooooooooooooooooooooooooooooooooooooooo",
"ooooooooooooooooooooooooooooooooooooooooooooooooooooooooSSSSSSSSSSSSSSSSSSSSoooooooooooooooooooooooooooooooooooooooooooooooooooo",
"oooooooooooooooooooooooooooooooooooooooooooooooooooooooooooooooooooooooooooooooooooooooooooooooooooooooooooooooooooooooooooooooo",
"oooooooooooooooooooooooooooooooooooooooooooooooooooooooooooooooooooooooooooooooooooooooooooooooooooooooooooooooooooooooooooooooo",
"oooooooooooooooooooooooooooooooooooooooooooooooooooooooooooooooooooooooooooooooooooooooooooooooooooooooooooooooooooooooooooooooo",
"oooooooooooooooooooooooooooooooooooooooooooooooooooooooooooooooooooooooooooooooooooooooooooooooooooooooooooooooooooooooooooooooo",
"oooooooooooooooooooooooooooooooooooooooooooooooooooooooooooooooooooooooooooooooooooooooooooooooooooooooooooooooooooooooooooooooo",
"oooooooooooooooooooooooooooooooooooooooooooooooooooooooooooooooooooooooooooooooooooooooooooooooooooooooooooooooooooooooooooooooo",
"oooooooooooooooooooooooooooooooooooooooooooooooooooooooooooooooooooooooooooooooooooooooooooooooooooooooooooooooooooooooooooooooo",
"oooooooooooooooooooooooooooooooooooooooooooooooooooooooooooooooooooooooooooooooooooooooooooooooooooooooooooooooooooooooooooooooo",
"oooooooooooooooooooooooooooooooooooooooooooooooooooooooooooooooooooooooooooooooooooooooooooooooooooooooooooooooooooooooooooooooo",
"oooooooooooooooooooooooooooooooooooooooooooooooooooooooooooooooooooooooooooooooooooooooooooooooooooooooooooooooooooooooooooooooo",
"oooooooooooooooooooooooooooooooooooooooooooooooooooooooooooooooooooooooooooooooooooooooooooooooooooooooooooooooooooooooooooooooo",
"oooooooooooooooooooooooooooooooooooooooooooooooooooooooooooooooooooooooooooooooooooooooooooooooooooooooooooooooooooooooooooooooo",
"oooooooooooooooooooooooooooooooooooooooooooooooooooooooooooooooooooooooooooooooooooooooooooooooooooooooooooooooooooooooooooooooo",
"oooooooooooooooooooooooooooooooooooooooooooooooooooooooooooooooooooooooooooooooooooooooooooooooooooooooooooooooooooooooooooooooo",
"oooooooooooooooooooooooooooooooooooooooooooooooooooooooooooooooooooooooooooooooooooooooooooooooooooooooooooooooooooooooooooooooo",
"oooooooooooooooooooooooooooooooooooooooooooooooooooooooooooooooooooooooooooooooooooooooooooooooooooooooooooooooooooooooooooooooo",
"oooooooooooooooooooooooooooooooooooooooooooooooooooooooooooooooooooooooooooooooooooooooooooooooooooooooooooooooooooooooooooooooo",
"oooooooooooooooooooooooooooooooooooooooooooooooooooooooooooooooooooooooooooooooooooooooooooooooooooooooooooooooooooooooooooooooo",
"oooooooooooooooooooooooooooooooooooooooooooooooooooooooooooooooooooooooooooooooooooooooooooooooooooooooooooooooooooooooooooooooo",
"oooooooooooooooooooooooooooooooooooooooooooooooooooooooooooooooooooooooooooooooooooooooooooooooooooooooooooooooooooooooooooooooo"
};
