/* XPM */
static char *_955d74bfe4741dad9a6aa2c444a3c45eb2H9d4Rw3LWIcqu[] = {
/* columns rows colors chars-per-pixel */
"64 64 114 2 ",
"   c #000000",
".  c #0A0200",
"X  c #120100",
"o  c #7D4600",
"O  c #734900",
"+  c #784A00",
"@  c #7B7A6E",
"#  c #797979",
"$  c #864300",
"%  c #AD7C04",
"&  c #A77E0D",
"*  c #AD7B0B",
"=  c #B67705",
"-  c #BA7602",
";  c #B37B01",
":  c #B97800",
">  c #B2790B",
",  c #AF7716",
"<  c #A57D13",
"1  c #AA7A16",
"2  c #A77A1F",
"3  c #AD781A",
"4  c #B17712",
"5  c #C47500",
"6  c #CA7300",
"7  c #807C57",
"8  c #EEA906",
"9  c #E4AC0F",
"0  c #EEA80C",
"q  c #F4A506",
"w  c #FAA306",
"e  c #F4A509",
"r  c #FAA10C",
"t  c #E4AC14",
"y  c #EEA51D",
"u  c #E2AC1B",
"i  c #F7A213",
"p  c #F9A114",
"a  c #F3A21C",
"s  c #F9A018",
"d  c #EDA523",
"f  c #E0AA26",
"g  c #E6A52D",
"h  c #ECA32B",
"j  c #E2A82B",
"k  c #F0A223",
"l  c #F0A12A",
"z  c #E6A433",
"x  c #EBA231",
"c  c #FFC327",
"v  c #FFC52A",
"b  c #FDC534",
"n  c #FDC53C",
"m  c #A9A57F",
"M  c #FFDC5E",
"N  c #FFD665",
"B  c #FFDA68",
"V  c #FFDA71",
"C  c #A5A397",
"Z  c #A6A498",
"A  c #A2A2A2",
"S  c #FFEB83",
"D  c #FFED8D",
"F  c #FFEC93",
"G  c #FFEA9C",
"H  c #FFEE9E",
"J  c #FFEC9A",
"K  c #FFEAA0",
"L  c #FFECA0",
"P  c #FFEEA0",
"I  c #FFEFA0",
"U  c #FFECA2",
"Y  c #FFECA3",
"T  c #FFEFA3",
"R  c #FFECA5",
"E  c #FFEDA6",
"W  c #FFECA7",
"Q  c #FFEDA7",
"!  c #FFEFA7",
"~  c #FFEDA3",
"^  c #FFEDA9",
"/  c #FDEEA9",
"(  c #FEEFAA",
")  c #FFEFAA",
"_  c #FFECAC",
"`  c #FFEDAC",
"'  c #FFEEAC",
"]  c #FEEFAE",
"[  c #FFEEAB",
"{  c #FFF0A2",
"}  c #FFF0A5",
"|  c #FFF0A8",
" . c #FEEEB0",
".. c #FFECB2",
"X. c #FDEFB2",
"o. c #FDEEB7",
"O. c #FEEDB4",
"+. c #F7EFBE",
"@. c #FBEEB9",
"#. c #FBEEBA",
"$. c #FDEDB9",
"%. c #F7F0B9",
"&. c #F6F0BE",
"*. c #F1EFC8",
"=. c #F3EFCA",
"-. c #F4F0C1",
";. c #EEECDF",
":. c #ECECE0",
">. c #EFEDE0",
",. c gray92",
"<. c #FFFFF4",
"1. c #FFFEFF",
"2. c white",
"3. c white",
/* pixels */
"                                                                                                                                ",
"                                                                                                                                ",
"                                                                                                                                ",
"                                                                                                                                ",
"                                                                                                                                ",
"                                                                                                                                ",
"                                                                                                                                ",
"                                                                                                                                ",
"                                                                                                                                ",
"                                                                                                                                ",
"                                                                                                                                ",
"                                                                                                                                ",
"                                                                                                                                ",
"                                                                                                                                ",
"                                                                                                                                ",
"                                                                                                                                ",
"                                                                                                                                ",
"                                                                                                                                ",
"                                                                                                                                ",
"                                                                                                                                ",
"                                                      . -.. . . . &.. . &..                                                     ",
"                                                  . . o.H J Q ^ U U ^ ^ U ] . .                                                 ",
"                                                . +.Q F > = 4 , 4 4 , 3 2 J { %.                                                ",
"                                                . ] D ; a s l N N x N x V 1 D } .                                               ",
"                                                . Q > a r r k x x h k d z V < U .                                               ",
"                                              . . Q - p r i $ o o o $ h g B * G .                                               ",
"                                                . Q - i p - S H Q U F o j M * G .                                               ",
"                                                . Q - s p - J . . . Q O f n * G .                                               ",
"                                                . Q - s p - U . . . ] O u b % G .                                               ",
"                                                . Q - p p - J X . X K + t v % G .                                               ",
"                                        A       . Q - p p 5 S F J F S ; 9 v % G .       A                                       ",
"                                        A       . ] > a i s - > > ; - d t b & U .       A                                       ",
"                                        A       . #.F ; a s a k k a a y n % F ...       A                                       ",
"                                      A A         . ] D = 5 6 6 6 6 5 - % D ^ . .       A A                                     ",
"                                      A           . . ..J o k s p a h o F ^ .             A                                     ",
"                                      A     A A       . ] D - 6 6 5 : S U .       A A     A                                     ",
"                                      A     A         . . J - p e v ; S | .         A     A                                     ",
"                                      A     A         @ 7 Q - i q 0 n < ^ 7         A     A                                     ",
"                                      A     A       # ;.=.Q - i q 0 n < ^ =.@       A     A                                     ",
"                                      A     A     A ,.>.7 Q - i q c ; S ^ =.>.A     A     A                                     ",
"                                      A     A A A 2.2.C . Q - i q c ; S ^ m <.2.A A A     A                                     ",
"                                      A     A 2.2.2.A   . Q - i q 0 n < ^ . C 2.2.2.A     A                                     ",
"                                      A     A 2.2.A A   . Q - i q 0 n < ^ . Z A 2.2.A     A                                     ",
"                                      A A A 2.A A       . Q - i q c ; S ...     A A 2.A A A                                     ",
"                                      A 2.2.A A         . Q - i 8 c % F . .       A A 2.2.A                                     ",
"                                      A 2.2.A           . Q - i q c ; D #..         A 2.2.A                                     ",
"                                      A 2.A             . Q - p w e b & ] .           A 2.A                                     ",
"                                        A A             . Q = i w e b & ] .           A A                                       ",
"                                                        . ^ > y 0 c ; D $..                                                     ",
"                                                        . ..D ; u b * J .                                                       ",
"                                                          . J & % % < H .                                                       ",
"                                                          . ..U H H U o..                                                       ",
"                                                            . . . . . .                                                         ",
"                                                                                                                                ",
"                                                                                                                                ",
"                                                                                                                                ",
"                                                                                                                                ",
"                                                                                                                                ",
"                                                                                                                                ",
"                                                                                                                                ",
"                                                                                                                                ",
"                                                                                                                                ",
"                                                                                                                                ",
"                                                                                                                                "
};
