/* XPM */
static char *b355709f7288474fef65ea46ef2ff357OuVFGpmk5XMlFSjX[] = {
/* columns rows colors chars-per-pixel */
"64 64 82 1 ",
"  c #030100",
". c #0A0100",
"X c #100200",
"o c #432600",
"O c #764700",
"+ c #7D4500",
"@ c #754900",
"# c #7F7B54",
"$ c #7C7A6B",
"% c #797979",
"& c #AD7C03",
"* c #A77E0B",
"= c #AD7B0C",
"- c #B67707",
"; c #BA7602",
": c #B37A02",
"> c #B4770C",
", c #B1790B",
"< c #A57D14",
"1 c #AA7B11",
"2 c #A67C1A",
"3 c #A87A1D",
"4 c #C37400",
"5 c #C97200",
"6 c #837D4A",
"7 c #807C56",
"8 c #EEA907",
"9 c #EDA70B",
"0 c #EBA90E",
"q c #F4A607",
"w c #F9A305",
"e c #F0A806",
"r c #F3A60B",
"t c #FAA20D",
"y c #EFA517",
"u c #E2AC14",
"i c #EDA51C",
"p c #E1AB1F",
"a c #F5A314",
"s c #F8A114",
"d c #F3A21B",
"f c #EEA324",
"g c #EAA42B",
"h c #E2A731",
"j c #E3A43A",
"k c #FFC52B",
"l c #FEC435",
"z c #FEC33B",
"x c #AAA57F",
"c c #FFD857",
"v c #FFD858",
"b c #FFDB62",
"n c #FFDA6F",
"m c #FFDA74",
"M c #A5A396",
"N c #A2A2A3",
"B c #FFEA86",
"V c #FFEC8C",
"C c #FFEC90",
"Z c #FFEA94",
"A c #FFED96",
"S c #FFEA9B",
"D c #FFED99",
"F c #FFEB9D",
"G c #FFED9F",
"H c #FFECA2",
"J c #FFEAA4",
"K c #FFECA6",
"L c #FFEBA8",
"P c #FFEEA9",
"I c #FFEEAF",
"U c #FFEEB1",
"Y c #FEEDB6",
"T c #FCEEB9",
"R c #FBEDBD",
"E c #FEF0B2",
"W c #F3EEC4",
"Q c #F3EFC9",
"! c #EEECDD",
"~ c #EBEBEA",
"^ c #FFFFF3",
"/ c white",
/* pixels */
"oooooooooooooooooooooooooooooooooooooooooooooooooooooooooooooooo",
"oooooooooooooooooooooooooooooooooooooooooooooooooooooooooooooooo",
"oooooooooooooooooooooooooooooooooooooooooooooooooooooooooooooooo",
"oooooooooooooooooooooooooooooooooooooooooooooooooooooooooooooooo",
"oooooooooooooooooooooooooooooooooooooooooooooooooooooooooooooooo",
"oooooooooooooooooooooooooooooooooooooooooooooooooooooooooooooooo",
"oooooooooooooooooooooooooooooooooooooooooooooooooooooooooooooooo",
"oooooooooooooooooooooooooooooooooooooooooooooooooooooooooooooooo",
"oooooooooooooooooooooooooooooooooooooooooooooooooooooooooooooooo",
"oooooooooooooooooooooooooooooooooooooooooooooooooooooooooooooooo",
"oooooooooooooooooooooooooooooooooooooooooooooooooooooooooooooooo",
"oooooooooooooooooooooooooooooooooooooooooooooooooooooooooooooooo",
"oooooooooooooooooooooooooooooooooooooooooooooooooooooooooooooooo",
"oooooooooooooooooooooooooooooooooooooooooooooooooooooooooooooooo",
"oooooooooooooooooooooooooNNNNNNNNNNNNNNNoooooooooooooooooooooooo",
"ooooooooooooooooooooooooNN  .........  NNooooooooooooooooooooooo",
"oooooooooooooooooooooooNN .EHSFFSSFFHU. NNoooooooooooooooooooooo",
"oooooooooooooooooooooooN .PV=:,,,,,=<AU. Noooooooooooooooooooooo",
"oooooooooooooooooooooooN YV:iaiccfvgm3AU Noooooooooooooooooooooo",
"oooooooooooooooooooooooN P,dttfgggfgjm<H.Noooooooooooooooooooooo",
"oooooooooooooooooooooooN K-std+O@O+jjn1F.Noooooooooooooooooooooo",
"oooooooooooooooooooooooN K;ss4VKPJZ+hb=S.Noooooooooooooooooooooo",
"oooooooooooooooooooooooN K;ss;F...J@pl&F.Noooooooooooooooooooooo",
"oooooooooooooooooooooooN K;ss;H. .L@uk&F.Noooooooooooooooooooooo",
"oooooooooooooooooooooooN K;ss;D...F@uk&F.Noooooooooooooooooooooo",
"oooooooooooooooooooooooN K-ds4BDGSB:uk&F.Noooooooooooooooooooooo",
"oooooooooooooooooooooooN P,dtt4;;;4y0l*H.Noooooooooooooooooooooo",
"oooooooooooooooooooooooN YV:dssssssal&VU Noooooooooooooooooooooo",
"oooooooooooooooooooooooN .PC,;55555;&VU. Noooooooooooooooooooooo",
"ooooooooooooooooNNNNNNNNN .IS+fdsdg+VK. NNNNNNNNNooooooooooooooo",
"oooooooooooooooNN          .IC;54;-BH.          NNoooooooooooooo",
"oooooooooooooooN  NNNNNNNN%$6D;dal:VP#$NNNNNNNN  Noooooooooooooo",
"oooooooooooooooN NN///////~!WH;strl*KQ!///////NN Noooooooooooooo",
"oooooooooooooooN   NNN/////M7K;swql*Kx^////NNN   Noooooooooooooo",
"oooooooooooooooNNN    NNNNN  K;aek:VI.MNNNN    NNNoooooooooooooo",
"oooooooooooooooooNNNN        K;aek:VI.      NNNNoooooooooooooooo",
"ooooooooooooooooooooNNNNNNNN K;swql*K.NNNNNNNooooooooooooooooooo",
"oooooooooooooooooooooooooooN K;swql*I Nooooooooooooooooooooooooo",
"oooooooooooooooooooooooooooN K;aek:VT Nooooooooooooooooooooooooo",
"oooooooooooooooooooooooooooN K;a8k&CX Nooooooooooooooooooooooooo",
"oooooooooooooooooooooooooooN K;aqk:BI Nooooooooooooooooooooooooo",
"oooooooooooooooooooooooooooN K;sq9z<P Nooooooooooooooooooooooooo",
"oooooooooooooooooooooooooooN K;sq9z<P Nooooooooooooooooooooooooo",
"oooooooooooooooooooooooooooN P>drk:BY Nooooooooooooooooooooooooo",
"oooooooooooooooooooooooooooN TV:il:Z. Nooooooooooooooooooooooooo",
"oooooooooooooooooooooooooooN .H2==2L.NNooooooooooooooooooooooooo",
"oooooooooooooooooooooooooooNN RIKKIR Noooooooooooooooooooooooooo",
"ooooooooooooooooooooooooooooN        Noooooooooooooooooooooooooo",
"ooooooooooooooooooooooooooooNNNNNNNNNNoooooooooooooooooooooooooo",
"oooooooooooooooooooooooooooooooooooooooooooooooooooooooooooooooo",
"oooooooooooooooooooooooooooooooooooooooooooooooooooooooooooooooo",
"oooooooooooooooooooooooooooooooooooooooooooooooooooooooooooooooo",
"oooooooooooooooooooooooooooooooooooooooooooooooooooooooooooooooo",
"oooooooooooooooooooooooooooooooooooooooooooooooooooooooooooooooo",
"oooooooooooooooooooooooooooooooooooooooooooooooooooooooooooooooo",
"oooooooooooooooooooooooooooooooooooooooooooooooooooooooooooooooo",
"oooooooooooooooooooooooooooooooooooooooooooooooooooooooooooooooo",
"oooooooooooooooooooooooooooooooooooooooooooooooooooooooooooooooo",
"oooooooooooooooooooooooooooooooooooooooooooooooooooooooooooooooo",
"oooooooooooooooooooooooooooooooooooooooooooooooooooooooooooooooo",
"oooooooooooooooooooooooooooooooooooooooooooooooooooooooooooooooo",
"oooooooooooooooooooooooooooooooooooooooooooooooooooooooooooooooo",
"oooooooooooooooooooooooooooooooooooooooooooooooooooooooooooooooo",
"oooooooooooooooooooooooooooooooooooooooooooooooooooooooooooooooo"
};
