/* XPM */
static char *be03a3b76b864803b093fd07c0a452d81DJNcu123pV507cx[] = {
/* columns rows colors chars-per-pixel */
"64 64 121 2 ",
"   c #000000",
".  c #0A0200",
"X  c #120000",
"o  c #7D4600",
"O  c #744900",
"+  c #7D7A67",
"@  c #864300",
"#  c #AD7C04",
"$  c #A77E0E",
"%  c #AC7B0B",
"&  c #B67705",
"*  c #BA7602",
"=  c #B37B01",
"-  c #B97900",
";  c #B67608",
":  c #B1780C",
">  c #AF7716",
",  c #A47E13",
"<  c #AF7718",
"1  c #A77A1A",
"2  c #AD781C",
"3  c #B17610",
"4  c #A77923",
"5  c #C37500",
"6  c #CA7300",
"7  c #807C55",
"8  c #EEA906",
"9  c #E6AC0D",
"0  c #EEA80C",
"q  c #F5A506",
"w  c #F9A306",
"e  c #F0A806",
"r  c #F4A509",
"t  c #FBA10D",
"y  c #E5AC13",
"u  c #ECA51E",
"i  c #E2AC1B",
"p  c #F7A213",
"a  c #F9A115",
"s  c #F3A21C",
"d  c #F8A018",
"f  c #EEA325",
"g  c #E0AA26",
"h  c #E6A52D",
"j  c #EBA32A",
"k  c #E2A82B",
"l  c #F1A223",
"z  c #F0A128",
"x  c #E6A433",
"c  c #ECA231",
"v  c #FFC327",
"b  c #FFC52A",
"n  c #FEC82A",
"m  c #FFC534",
"M  c #FAC835",
"N  c #FDC53C",
"B  c #A9A57F",
"V  c #FFDC5E",
"C  c #FFD664",
"Z  c #FFDA68",
"A  c #FFD972",
"S  c #A5A396",
"D  c #A3A29E",
"F  c #A2A2A2",
"G  c #FFEB83",
"H  c #FFEB8C",
"J  c #FFEC95",
"K  c #FFEC91",
"L  c #FFEA99",
"P  c #FFEB9A",
"I  c #FFEC99",
"U  c #FFED99",
"Y  c #FFEA9C",
"T  c #FFEB9C",
"R  c #FFEB9E",
"E  c #FFEC9E",
"W  c #FFEE9E",
"Q  c #FFEC9B",
"!  c #FFEAA0",
"~  c #FFEFA0",
"^  c #FFECA2",
"/  c #FFEDA2",
"(  c #FFECA3",
")  c #FFEDA3",
"_  c #FFEDA4",
"`  c #FFECA5",
"'  c #FFEDA5",
"]  c #FFEDA6",
"[  c #FFECA7",
"{  c #FFEDA7",
"}  c #FFEFA7",
"|  c #FFEDA0",
" . c #FFEDA9",
".. c #FFECAA",
"X. c #FFEDAA",
"o. c #FEEFAA",
"O. c #FFEFAA",
"+. c #FFECAC",
"@. c #FFEDAC",
"#. c #FFEEAC",
"$. c #FFEDAE",
"%. c #FEEEB0",
"&. c #FFEFB1",
"*. c #FDEFB2",
"=. c #FDEEB3",
"-. c #FEEEB2",
";. c #FEEEB3",
":. c #FFEEB5",
">. c #FBEEB9",
",. c #FBEEBA",
"<. c #FCEFBB",
"1. c #FEEEBB",
"2. c #F2EEC8",
"3. c #EEECDF",
"4. c #EEECE0",
"5. c #ECEBE7",
"6. c gray92",
"7. c #ECECEA",
"8. c #FFFFFD",
"9. c #FFFEFF",
"0. c white",
/* pixels */
"                                                                                                                                ",
"                                                                                                                                ",
"                                                                                                                                ",
"                                                                                                                                ",
"                                                                                                                                ",
"                                                                                                                                ",
"                                                                                                                                ",
"                                                                                                                                ",
"                                                                                                                                ",
"                                                                                                                                ",
"                                                                                                                                ",
"                                                                                                                                ",
"                                                                                                                                ",
"                                                                        .                                                       ",
"                                                      . . . . . . . . . . .                                                     ",
"                                                  . . <...` ..+.+.+.+.+.+.<..                                                   ",
"                                                  . +.K : & 3 > > < < 2 4 T &..                                                 ",
"                                                . ,.K = s d z C C c C c A 1 U &..                                               ",
"                                                . +.: s t t z c c j l f x A 1 / .                                               ",
"                                                . ` * a t p @ o o o @ j h Z % T .                                               ",
"                                                . ` * a a * H W ` / K o k V % T .                                               ",
"                                                . / * a a * U . . . ` O g N % T .                                               ",
"                                                . / * a a * / . . . +.O i m # L .                                               ",
"                                                . ` * a p * U . . X ! O y n # L .                                               ",
"                                                . ` * a a * G K L K G = 9 n # T .                                               ",
"                                                . +.: u a s - : & & * u y M $ ` .                                               ",
"                                    F F F F     . ,.K # s a s l l s s u N # K &..     F F F F                                   ",
"                                    F 9.9.F F     . +.H & 5 6 6 6 6 6 * # H ...     F F 9.9.F                                   ",
"                                      F 9.9.9.F D . . &.J o f d a s j o K ...   D F 9.9.9.F                                     ",
"                                        F F 9.9.9.D S . &.K * 6 6 5 - G / . S F 9.9.9.F F                                       ",
"                                            F F 9.7.5.+ . W * p r b = G ` 7 3.6.9.F F                                           ",
"                                                F F F 4.7 ` * p q 0 N , ..2.S F F                                               ",
"                                                      S 7 ` * p q 0 N , ..B                                                     ",
"                                                        . ` * p q v = G ...                                                     ",
"                                                        . ` * p q v = G ...                                                     ",
"                                                        . ` * p q 0 N , ...                                                     ",
"                                                        . ` * p q 0 N , ...                                                     ",
"                                                        . ` * p q v = G &..                                                     ",
"                                                        . ` * p 8 v # K . .                                                     ",
"                                                        . ` * p e v = H ,..                                                     ",
"                                                        . ` * p w r m $ +..                                                     ",
"                                                        . ` ; a w r m $ +..                                                     ",
"                                                        . ..: u 0 v = H ,..                                                     ",
"                                                        . :.H = i M % L .                                                       ",
"                                                          . U $ # # , W .                                                       ",
"                                                          . :./ T W / &..                                                       ",
"                                                            . . . . . .                                                         ",
"                                                                                                                                ",
"                                                                                                                                ",
"                                                                                                                                ",
"                                                                                                                                ",
"                                                                                                                                ",
"                                                                                                                                ",
"                                                                                                                                ",
"                                                                                                                                ",
"                                                                                                                                ",
"                                                                                                                                ",
"                                                                                                                                ",
"                                                                                                                                ",
"                                                                                                                                ",
"                                                                                                                                ",
"                                                                                                                                ",
"                                                                                                                                ",
"                                                                                                                                "
};
