/* XPM */
static char *d6afadbf5cc9447bf39e1ae341702a4bENYTw7knfd7WU578[] = {
/* columns rows colors chars-per-pixel */
"128 128 85 1 ",
"  c #030100",
". c #0A0100",
"X c #100200",
"o c #432600",
"O c #764700",
"+ c #7D4500",
"@ c #754900",
"# c #7F7B54",
"$ c #7C7A6B",
"% c #797979",
"& c #AD7C03",
"* c #A77E0B",
"= c #AD7B0C",
"- c #B67707",
"; c #BA7602",
": c #B37A02",
"> c #B4770C",
", c #B1790B",
"< c #A57D14",
"1 c #AA7B11",
"2 c #A67C1A",
"3 c #A87A1D",
"4 c #C37400",
"5 c #C97200",
"6 c #837D4A",
"7 c #807C56",
"8 c #EEA907",
"9 c #EDA70B",
"0 c #EBA90E",
"q c #F4A607",
"w c #F9A305",
"e c #F0A806",
"r c #F3A60B",
"t c #FAA20D",
"y c #EFA517",
"u c #E2AC14",
"i c #EDA51C",
"p c #E1AB1F",
"a c #F5A314",
"s c #F8A114",
"d c #F3A21B",
"f c #EEA324",
"g c #EAA42B",
"h c #E2A731",
"j c #E3A43A",
"k c #FFC52B",
"l c #FEC435",
"z c #FEC33B",
"x c #AAA57F",
"c c #FFD857",
"v c #FFD858",
"b c #FFDB62",
"n c #FFDA6F",
"m c #FFDA74",
"M c #A5A396",
"N c #A2A2A3",
"B c #FFEA86",
"V c #FFEC8C",
"C c #FFEC90",
"Z c #FFEA94",
"A c #FFED96",
"S c #FFEA9B",
"D c #FFED99",
"F c #FFEB9D",
"G c #FFED9F",
"H c #FFECA2",
"J c #FFEAA4",
"K c #FFECA6",
"L c #FFEFA7",
"P c #FFEBA8",
"I c #FFEEA9",
"U c #FFEFAB",
"Y c #FFEFAC",
"T c #FFEEAF",
"R c #FFEEB1",
"E c #FEEDB6",
"W c #FCEEB9",
"Q c #FBEDBD",
"! c #FEF0B2",
"~ c #F3EEC4",
"^ c #F3EFC9",
"/ c #EEECDD",
"( c #EBEBEA",
") c #FFFFF3",
"_ c white",
/* pixels */
"oooooooooooooooooooooooooooooooooooooooooooooooooooooooooooooooooooooooooooooooooooooooooooooooooooooooooooooooooooooooooooooooo",
"oooooooooooooooooooooooooooooooooooooooooooooooooooooooooooooooooooooooooooooooooooooooooooooooooooooooooooooooooooooooooooooooo",
"oooooooooooooooooooooooooooooooooooooooooooooooooooooooooooooooooooooooooooooooooooooooooooooooooooooooooooooooooooooooooooooooo",
"oooooooooooooooooooooooooooooooooooooooooooooooooooooooooooooooooooooooooooooooooooooooooooooooooooooooooooooooooooooooooooooooo",
"oooooooooooooooooooooooooooooooooooooooooooooooooooooooooooooooooooooooooooooooooooooooooooooooooooooooooooooooooooooooooooooooo",
"oooooooooooooooooooooooooooooooooooooooooooooooooooooooooooooooooooooooooooooooooooooooooooooooooooooooooooooooooooooooooooooooo",
"oooooooooooooooooooooooooooooooooooooooooooooooooooooooooooooooooooooooooooooooooooooooooooooooooooooooooooooooooooooooooooooooo",
"oooooooooooooooooooooooooooooooooooooooooooooooooooooooooooooooooooooooooooooooooooooooooooooooooooooooooooooooooooooooooooooooo",
"oooooooooooooooooooooooooooooooooooooooooooooooooooooooooooooooooooooooooooooooooooooooooooooooooooooooooooooooooooooooooooooooo",
"oooooooooooooooooooooooooooooooooooooooooooooooooooooooooooooooooooooooooooooooooooooooooooooooooooooooooooooooooooooooooooooooo",
"oooooooooooooooooooooooooooooooooooooooooooooooooooooooooooooooooooooooooooooooooooooooooooooooooooooooooooooooooooooooooooooooo",
"oooooooooooooooooooooooooooooooooooooooooooooooooooooooooooooooooooooooooooooooooooooooooooooooooooooooooooooooooooooooooooooooo",
"oooooooooooooooooooooooooooooooooooooooooooooooooooooooooooooooooooooooooooooooooooooooooooooooooooooooooooooooooooooooooooooooo",
"oooooooooooooooooooooooooooooooooooooooooooooooooooooooooooooooooooooooooooooooooooooooooooooooooooooooooooooooooooooooooooooooo",
"oooooooooooooooooooooooooooooooooooooooooooooooooooooooooooooooooooooooooooooooooooooooooooooooooooooooooooooooooooooooooooooooo",
"oooooooooooooooooooooooooooooooooooooooooooooooooooooooooooooooooooooooooooooooooooooooooooooooooooooooooooooooooooooooooooooooo",
"oooooooooooooooooooooooooooooooooooooooooooooooooooooooooooooooooooooooooooooooooooooooooooooooooooooooooooooooooooooooooooooooo",
"oooooooooooooooooooooooooooooooooooooooooooooooooooooooooooooooooooooooooooooooooooooooooooooooooooooooooooooooooooooooooooooooo",
"oooooooooooooooooooooooooooooooooooooooooooooooooooooooooooooooooooooooooooooooooooooooooooooooooooooooooooooooooooooooooooooooo",
"oooooooooooooooooooooooooooooooooooooooooooooooooooooooooooooooooooooooooooooooooooooooooooooooooooooooooooooooooooooooooooooooo",
"oooooooooooooooooooooooooooooooooooooooooooooooooooooooooooooooooooooooooooooooooooooooooooooooooooooooooooooooooooooooooooooooo",
"oooooooooooooooooooooooooooooooooooooooooooooooooooooooooooooooooooooooooooooooooooooooooooooooooooooooooooooooooooooooooooooooo",
"oooooooooooooooooooooooooooooooooooooooooooooooooooooooooooooooooooooooooooooooooooooooooooooooooooooooooooooooooooooooooooooooo",
"oooooooooooooooooooooooooooooooooooooooooooooooooooooooooooooooooooooooooooooooooooooooooooooooooooooooooooooooooooooooooooooooo",
"oooooooooooooooooooooooooooooooooooooooooooooooooooooooooooooooooooooooooooooooooooooooooooooooooooooooooooooooooooooooooooooooo",
"oooooooooooooooooooooooooooooooooooooooooooooooooooooooooooooooooooooooooooooooooooooooooooooooooooooooooooooooooooooooooooooooo",
"oooooooooooooooooooooooooooooooooooooooooooooooooooooooooooooooooooooooooooooooooooooooooooooooooooooooooooooooooooooooooooooooo",
"oooooooooooooooooooooooooooooooooooooooooooooooooooooooooooooooooooooooooooooooooooooooooooooooooooooooooooooooooooooooooooooooo",
"ooooooooooooooooooooooooooooooooooooooooooooooooooNNNNNNNNNNNNNNNNNNNNNNNNNNNNNNoooooooooooooooooooooooooooooooooooooooooooooooo",
"ooooooooooooooooooooooooooooooooooooooooooooooooooNNNNNNNNNNNNNNNNNNNNNNNNNNNNNNoooooooooooooooooooooooooooooooooooooooooooooooo",
"ooooooooooooooooooooooooooooooooooooooooooooooooNNNN    ..................    NNNNoooooooooooooooooooooooooooooooooooooooooooooo",
"ooooooooooooooooooooooooooooooooooooooooooooooooNNNN    ..................    NNNNoooooooooooooooooooooooooooooooooooooooooooooo",
"ooooooooooooooooooooooooooooooooooooooooooooooNNNN  ..!!HHSSFFFFSSSSSSFFHHRR..  NNNNoooooooooooooooooooooooooooooooooooooooooooo",
"ooooooooooooooooooooooooooooooooooooooooooooooNNNN  ..!!HHSSFFFFSSSSSSFFHHRR..  NNNNoooooooooooooooooooooooooooooooooooooooooooo",
"ooooooooooooooooooooooooooooooooooooooooooooooNN  ..IICC==::,,,,,,,,,,==<<AARR..  NNoooooooooooooooooooooooooooooooooooooooooooo",
"ooooooooooooooooooooooooooooooooooooooooooooooNN  ..IICC==::,,,,,,,,,,==<<AARR..  NNoooooooooooooooooooooooooooooooooooooooooooo",
"ooooooooooooooooooooooooooooooooooooooooooooooNN  EEVV::yyaaiiccccffvvggmm33AARR  NNoooooooooooooooooooooooooooooooooooooooooooo",
"ooooooooooooooooooooooooooooooooooooooooooooooNN  EEVV::yyaaiiccccffvvggmm33AARR  NNoooooooooooooooooooooooooooooooooooooooooooo",
"ooooooooooooooooooooooooooooooooooooooooooooooNN  II,,ddttttffggggggffggjjmm<<HH..NNoooooooooooooooooooooooooooooooooooooooooooo",
"ooooooooooooooooooooooooooooooooooooooooooooooNN  II,,ddttttfiggggggffggjjmm<<HH..NNoooooooooooooooooooooooooooooooooooooooooooo",
"ooooooooooooooooooooooooooooooooooooooooooooooNN  KK--ssttdd++OO@@OO++jjjjnn11FF..NNoooooooooooooooooooooooooooooooooooooooooooo",
"ooooooooooooooooooooooooooooooooooooooooooooooNN  KK--ssttdd++OO@@OO++jjjjnn11FF..NNoooooooooooooooooooooooooooooooooooooooooooo",
"ooooooooooooooooooooooooooooooooooooooooooooooNN  KK;;ssss44VVKKIIJJZZOOhhbb==SS..NNoooooooooooooooooooooooooooooooooooooooooooo",
"ooooooooooooooooooooooooooooooooooooooooooooooNN  KK;;ssss44VVKKIIJJZZOOhhbb==SS..NNoooooooooooooooooooooooooooooooooooooooooooo",
"ooooooooooooooooooooooooooooooooooooooooooooooNN  KK;;ssss;;FF......JJ@@ppll&&FF..NNoooooooooooooooooooooooooooooooooooooooooooo",
"ooooooooooooooooooooooooooooooooooooooooooooooNN  KK;;ssss;;FF......JJ@@ppll&&FF..NNoooooooooooooooooooooooooooooooooooooooooooo",
"ooooooooooooooooooooooooooooooooooooooooooooooNN..KK;;ssss;;HH..  ..PP@@uukk&&FF..NNoooooooooooooooooooooooooooooooooooooooooooo",
"ooooooooooooooooooooooooooooooooooooooooooooooNN..KK;;ssss;;HH..  ..PP@@uukk&&FF..NNoooooooooooooooooooooooooooooooooooooooooooo",
"ooooooooooooooooooooooooooooooooooooooooooooooNN. HH;;ssss;;DD......FF@@uukk&&SF..NNoooooooooooooooooooooooooooooooooooooooooooo",
"ooooooooooooooooooooooooooooooooooooooooooooooNN. KH;;ssss;;DD......FF@@uukk&&FF..NNoooooooooooooooooooooooooooooooooooooooooooo",
"ooooooooooooooooooooooooooooooooooooooooooooooNN  KK--ddss44BBDDGGSSBB::uukk&&GG..NNoooooooooooooooooooooooooooooooooooooooooooo",
"ooooooooooooooooooooooooooooooooooooooooooooooNN  KK--ddss44BBDDGGSSBB::uukk&&GG..NNoooooooooooooooooooooooooooooooooooooooooooo",
"ooooooooooooooooooooooooooooooooooooooooooooooNN  II,,ddtttt44;;;;;;44yy00ll**HH..NNoooooooooooooooooooooooooooooooooooooooooooo",
"ooooooooooooooooooooooooooooooooooooooooooooooNN .II,,ddtttt44;;;;;;44yy00ll**HH..NNoooooooooooooooooooooooooooooooooooooooooooo",
"ooooooooooooooooooooooooooooooooooooooooooooooNN  EEVV::ddssssssssssssaall&&VB!!  NNoooooooooooooooooooooooooooooooooooooooooooo",
"ooooooooooooooooooooooooooooooooooooooooooooooNN  EEVV::ddssssssssssssaall&&VV!!  NNoooooooooooooooooooooooooooooooooooooooooooo",
"ooooooooooooooooooooooooooooooooooooooooooooooNN  ..IICC,,;;5555555555;;&&VVRR..  NNoooooooooooooooooooooooooooooooooooooooooooo",
"ooooooooooooooooooooooooooooooooooooooooooooooNN  ..IICC,,;;5555555555;;&&VVRR..  NNoooooooooooooooooooooooooooooooooooooooooooo",
"ooooooooooooooooooooooooooooooooNNNNNNNNNNNNNNNNNN  ..TTSS++ffddssddgg++VVKK..  NNNNNNNNNNNNNNNNNNoooooooooooooooooooooooooooooo",
"ooooooooooooooooooooooooooooooooNNNNNNNNNNNNNNNNNN  ..TTSS++ffddssddgg++VVKK..  NNNNNNNNNNNNNNNNNNoooooooooooooooooooooooooooooo",
"ooooooooooooooooooooooooooooooNNNN                    ..TTCC;;5544;;--BBHH..                    NNNNoooooooooooooooooooooooooooo",
"ooooooooooooooooooooooooooooooNNNN                    ..TTCC;;5544;;--BBHH..                    NNNNoooooooooooooooooooooooooooo",
"ooooooooooooooooooooooooooooooNN    NNNNNNNNNNNNNNNN%%$$66DD;;ddaall::BBII##$$NNNNNNNNNNNNNNNN    NNoooooooooooooooooooooooooooo",
"ooooooooooooooooooooooooooooooNN    NNNNNNNNNNNNNNNN%%$$66DD;;ddaall::BBII##$$NNNNNNNNNNNNNNNN    NNoooooooooooooooooooooooooooo",
"ooooooooooooooooooooooooooooooNN  NNNN______________((//~~HH;;ssttrrll**KK^^//______________NNNN  NNoooooooooooooooooooooooooooo",
"ooooooooooooooooooooooooooooooNN  NNNN______________((//~~HH;;ssttrrll**KK^^//______________NNNN  NNoooooooooooooooooooooooooooo",
"ooooooooooooooooooooooooooooooNN      NNNNNN__________MM77KK;;sswwqqll**KKxx))________NNNNNN      NNoooooooooooooooooooooooooooo",
"ooooooooooooooooooooooooooooooNN      NNNNNN__________MM77KK;;sswwqqll**KKxx))________NNNNNN      NNoooooooooooooooooooooooooooo",
"ooooooooooooooooooooooooooooooNNNNNN        NNNNNNNNNN    KK;;sseekk::BBTT..MMNNNNNNNN        NNNNNNoooooooooooooooooooooooooooo",
"ooooooooooooooooooooooooooooooNNNNNN        NNNNNNNNNN    KK;;sseekk::BBTT..MMNNNNNNNN        NNNNNNoooooooooooooooooooooooooooo",
"ooooooooooooooooooooooooooooooooooNNNNNNNN                HH;;sseekk::BBTT..            NNNNNNNNoooooooooooooooooooooooooooooooo",
"ooooooooooooooooooooooooooooooooooNNNNNNNN                HH;;sseekk::BBTT.             NNNNNNNNoooooooooooooooooooooooooooooooo",
"ooooooooooooooooooooooooooooooooooooooooNNNNNNNNNNNNNNNN  KK;;sswwqqll**KK..NNNNNNNNNNNNNNoooooooooooooooooooooooooooooooooooooo",
"ooooooooooooooooooooooooooooooooooooooooNNNNNNNNNNNNNNNN  KK;;sswwqqll**KK..NNNNNNNNNNNNNNoooooooooooooooooooooooooooooooooooooo",
"ooooooooooooooooooooooooooooooooooooooooooooooooooooooNN. KK;;sswwqqll**TT  NNoooooooooooooooooooooooooooooooooooooooooooooooooo",
"ooooooooooooooooooooooooooooooooooooooooooooooooooooooNN. KK;;sswwqqll**TT  NNoooooooooooooooooooooooooooooooooooooooooooooooooo",
"ooooooooooooooooooooooooooooooooooooooooooooooooooooooNN..KK;;sseekk::VVWW  NNoooooooooooooooooooooooooooooooooooooooooooooooooo",
"ooooooooooooooooooooooooooooooooooooooooooooooooooooooNN  KK;;sseekk::VVWW  NNoooooooooooooooooooooooooooooooooooooooooooooooooo",
"ooooooooooooooooooooooooooooooooooooooooooooooooooooooNN  KK;;ss88kk&&CCXX  NNoooooooooooooooooooooooooooooooooooooooooooooooooo",
"ooooooooooooooooooooooooooooooooooooooooooooooooooooooNN  KK;;ss88kk&&CCXX  NNoooooooooooooooooooooooooooooooooooooooooooooooooo",
"ooooooooooooooooooooooooooooooooooooooooooooooooooooooNN  KK;;ssqqkk::BBTT  NNoooooooooooooooooooooooooooooooooooooooooooooooooo",
"ooooooooooooooooooooooooooooooooooooooooooooooooooooooNN  KK;;ssqqkk::BBTT  NNoooooooooooooooooooooooooooooooooooooooooooooooooo",
"ooooooooooooooooooooooooooooooooooooooooooooooooooooooNN  KK;;ssqq99zz<<II  NNoooooooooooooooooooooooooooooooooooooooooooooooooo",
"ooooooooooooooooooooooooooooooooooooooooooooooooooooooNN  KK;;ssqq99zz<<II  NNoooooooooooooooooooooooooooooooooooooooooooooooooo",
"ooooooooooooooooooooooooooooooooooooooooooooooooooooooNN  KK;;ssqq99zz<<II. NNoooooooooooooooooooooooooooooooooooooooooooooooooo",
"ooooooooooooooooooooooooooooooooooooooooooooooooooooooNN  KK;;ssqq99zz<<II  NNoooooooooooooooooooooooooooooooooooooooooooooooooo",
"ooooooooooooooooooooooooooooooooooooooooooooooooooooooNN  II>>ddrrkk::BBEE  NNoooooooooooooooooooooooooooooooooooooooooooooooooo",
"ooooooooooooooooooooooooooooooooooooooooooooooooooooooNN  II>>ddrrkk::BBEE  NNoooooooooooooooooooooooooooooooooooooooooooooooooo",
"ooooooooooooooooooooooooooooooooooooooooooooooooooooooNN  WWVV::iizz::ZZ..  NNoooooooooooooooooooooooooooooooooooooooooooooooooo",
"ooooooooooooooooooooooooooooooooooooooooooooooooooooooNN  WWVV::iizz::ZZ..  NNoooooooooooooooooooooooooooooooooooooooooooooooooo",
"ooooooooooooooooooooooooooooooooooooooooooooooooooooooNN  ..HH22====22PP..NNNNoooooooooooooooooooooooooooooooooooooooooooooooooo",
"ooooooooooooooooooooooooooooooooooooooooooooooooooooooNN  ..HH22====22PP..NNNNoooooooooooooooooooooooooooooooooooooooooooooooooo",
"ooooooooooooooooooooooooooooooooooooooooooooooooooooooNNNN  QQTTKKKKTTQQ  NNoooooooooooooooooooooooooooooooooooooooooooooooooooo",
"ooooooooooooooooooooooooooooooooooooooooooooooooooooooNNNN  QQTTKKKKTTQQ  NNoooooooooooooooooooooooooooooooooooooooooooooooooooo",
"ooooooooooooooooooooooooooooooooooooooooooooooooooooooooNN      ..        NNoooooooooooooooooooooooooooooooooooooooooooooooooooo",
"ooooooooooooooooooooooooooooooooooooooooooooooooooooooooNN      ..        NNoooooooooooooooooooooooooooooooooooooooooooooooooooo",
"ooooooooooooooooooooooooooooooooooooooooooooooooooooooooNNNNNNNNNNNNNNNNNNNNoooooooooooooooooooooooooooooooooooooooooooooooooooo",
"ooooooooooooooooooooooooooooooooooooooooooooooooooooooooNNNNNNNNNNNNNNNNNNNNoooooooooooooooooooooooooooooooooooooooooooooooooooo",
"oooooooooooooooooooooooooooooooooooooooooooooooooooooooooooooooooooooooooooooooooooooooooooooooooooooooooooooooooooooooooooooooo",
"oooooooooooooooooooooooooooooooooooooooooooooooooooooooooooooooooooooooooooooooooooooooooooooooooooooooooooooooooooooooooooooooo",
"oooooooooooooooooooooooooooooooooooooooooooooooooooooooooooooooooooooooooooooooooooooooooooooooooooooooooooooooooooooooooooooooo",
"oooooooooooooooooooooooooooooooooooooooooooooooooooooooooooooooooooooooooooooooooooooooooooooooooooooooooooooooooooooooooooooooo",
"oooooooooooooooooooooooooooooooooooooooooooooooooooooooooooooooooooooooooooooooooooooooooooooooooooooooooooooooooooooooooooooooo",
"oooooooooooooooooooooooooooooooooooooooooooooooooooooooooooooooooooooooooooooooooooooooooooooooooooooooooooooooooooooooooooooooo",
"oooooooooooooooooooooooooooooooooooooooooooooooooooooooooooooooooooooooooooooooooooooooooooooooooooooooooooooooooooooooooooooooo",
"oooooooooooooooooooooooooooooooooooooooooooooooooooooooooooooooooooooooooooooooooooooooooooooooooooooooooooooooooooooooooooooooo",
"oooooooooooooooooooooooooooooooooooooooooooooooooooooooooooooooooooooooooooooooooooooooooooooooooooooooooooooooooooooooooooooooo",
"oooooooooooooooooooooooooooooooooooooooooooooooooooooooooooooooooooooooooooooooooooooooooooooooooooooooooooooooooooooooooooooooo",
"oooooooooooooooooooooooooooooooooooooooooooooooooooooooooooooooooooooooooooooooooooooooooooooooooooooooooooooooooooooooooooooooo",
"oooooooooooooooooooooooooooooooooooooooooooooooooooooooooooooooooooooooooooooooooooooooooooooooooooooooooooooooooooooooooooooooo",
"oooooooooooooooooooooooooooooooooooooooooooooooooooooooooooooooooooooooooooooooooooooooooooooooooooooooooooooooooooooooooooooooo",
"oooooooooooooooooooooooooooooooooooooooooooooooooooooooooooooooooooooooooooooooooooooooooooooooooooooooooooooooooooooooooooooooo",
"oooooooooooooooooooooooooooooooooooooooooooooooooooooooooooooooooooooooooooooooooooooooooooooooooooooooooooooooooooooooooooooooo",
"oooooooooooooooooooooooooooooooooooooooooooooooooooooooooooooooooooooooooooooooooooooooooooooooooooooooooooooooooooooooooooooooo",
"oooooooooooooooooooooooooooooooooooooooooooooooooooooooooooooooooooooooooooooooooooooooooooooooooooooooooooooooooooooooooooooooo",
"oooooooooooooooooooooooooooooooooooooooooooooooooooooooooooooooooooooooooooooooooooooooooooooooooooooooooooooooooooooooooooooooo",
"oooooooooooooooooooooooooooooooooooooooooooooooooooooooooooooooooooooooooooooooooooooooooooooooooooooooooooooooooooooooooooooooo",
"oooooooooooooooooooooooooooooooooooooooooooooooooooooooooooooooooooooooooooooooooooooooooooooooooooooooooooooooooooooooooooooooo",
"oooooooooooooooooooooooooooooooooooooooooooooooooooooooooooooooooooooooooooooooooooooooooooooooooooooooooooooooooooooooooooooooo",
"oooooooooooooooooooooooooooooooooooooooooooooooooooooooooooooooooooooooooooooooooooooooooooooooooooooooooooooooooooooooooooooooo",
"oooooooooooooooooooooooooooooooooooooooooooooooooooooooooooooooooooooooooooooooooooooooooooooooooooooooooooooooooooooooooooooooo",
"oooooooooooooooooooooooooooooooooooooooooooooooooooooooooooooooooooooooooooooooooooooooooooooooooooooooooooooooooooooooooooooooo",
"oooooooooooooooooooooooooooooooooooooooooooooooooooooooooooooooooooooooooooooooooooooooooooooooooooooooooooooooooooooooooooooooo",
"oooooooooooooooooooooooooooooooooooooooooooooooooooooooooooooooooooooooooooooooooooooooooooooooooooooooooooooooooooooooooooooooo",
"oooooooooooooooooooooooooooooooooooooooooooooooooooooooooooooooooooooooooooooooooooooooooooooooooooooooooooooooooooooooooooooooo",
"oooooooooooooooooooooooooooooooooooooooooooooooooooooooooooooooooooooooooooooooooooooooooooooooooooooooooooooooooooooooooooooooo",
"oooooooooooooooooooooooooooooooooooooooooooooooooooooooooooooooooooooooooooooooooooooooooooooooooooooooooooooooooooooooooooooooo",
"oooooooooooooooooooooooooooooooooooooooooooooooooooooooooooooooooooooooooooooooooooooooooooooooooooooooooooooooooooooooooooooooo"
};
