/* XPM */
static char *e426b4e1d52d40549841aecd7d1d5f36YSnynXcfLUA6L4Cz[] = {
/* columns rows colors chars-per-pixel */
"64 64 116 2 ",
"   c #000000",
".  c #0A0100",
"X  c #764700",
"o  c #7E4500",
"O  c #754900",
"+  c #7F7B55",
"@  c #7C7B6B",
"#  c #797979",
"$  c #AD7C03",
"%  c #A77E0B",
"&  c #AD7B0C",
"*  c #B67706",
"=  c #BA7602",
"-  c #B37A02",
";  c #B3770E",
":  c #B1790A",
">  c #A67D14",
",  c #AA7B11",
"<  c #A67C1A",
"1  c #A8791D",
"2  c #C37400",
"3  c #CA7300",
"4  c #837D4B",
"5  c #807C56",
"6  c #EEA906",
"7  c #EDA70B",
"8  c #ECA90E",
"9  c #F4A606",
"0  c #FAA305",
"q  c #F0A806",
"w  c #F3A60A",
"e  c #FAA20D",
"r  c #E3AC14",
"t  c #EDA51C",
"y  c #E2AA1F",
"u  c #F5A313",
"i  c #F8A114",
"p  c #F3A21B",
"a  c #F8A018",
"s  c #ECA425",
"d  c #EAA42B",
"f  c #F0A226",
"g  c #E2A731",
"h  c #E4A43A",
"j  c #FFC52A",
"k  c #FFC435",
"l  c #FAC835",
"z  c #FEC33C",
"x  c #A9A57F",
"c  c #FFD957",
"v  c #FFD858",
"b  c #FFDB63",
"n  c #FFDA6F",
"m  c #FFDA74",
"M  c #A5A397",
"N  c #A2A2A2",
"B  c #FFEA86",
"V  c #FFEC8C",
"C  c #FFEB92",
"Z  c #FFEB90",
"A  c #FFEC90",
"S  c #FFE994",
"D  c #FFED97",
"F  c #FFEA95",
"G  c #FFEA99",
"H  c #FFEB9A",
"J  c #FFEC99",
"K  c #FFED99",
"L  c #FFEE9A",
"P  c #FFEA9C",
"I  c #FFEB9D",
"U  c #FFEB9E",
"Y  c #FFEC9C",
"T  c #FFEBA3",
"R  c #FFEDA0",
"E  c #FFECA2",
"W  c #FFEDA2",
"Q  c #FFEDA3",
"!  c #FFEEA3",
"~  c #FFEAA5",
"^  c #FFECA5",
"/  c #FFEDA5",
"(  c #FFEDA6",
")  c #FFEEA6",
"_  c #FFEFA7",
"`  c #FFEDA6",
"'  c #FFECA9",
"]  c #FFEDA9",
"[  c #FFECAA",
"{  c #FFEEAA",
"}  c #FFEFAA",
"|  c #FFECAC",
" . c #FFEEAC",
".. c #FFEEAE",
"X. c #FEEFAE",
"o. c #FFEDAC",
"O. c #FEEEB0",
"+. c #FFEEB0",
"@. c #FFEFB1",
"#. c #FEEEB2",
"$. c #FEEEB3",
"%. c #FEEDB5",
"&. c #FBEEB9",
"*. c #FCEEBC",
"=. c #FEF0B3",
"-. c #F3EEC4",
";. c #FAEDC0",
":. c #F3EFC9",
">. c #EEECDD",
",. c #EEECDF",
"<. c #EBEBE9",
"1. c #FFFFF4",
"2. c #FFFFFD",
"3. c #FEFEFE",
"4. c #FEFFFF",
"5. c white",
/* pixels */
"                                                                                                                                ",
"                                                                                                                                ",
"                                                                                                                                ",
"                                                                                                                                ",
"                                                                                                                                ",
"                                                                                                                                ",
"                                                                                                                                ",
"                                                                                                                                ",
"                                                                                                                                ",
"                                                                                                                                ",
"                                                                                                                                ",
"                                                                                                                                ",
"                                                                                                                                ",
"                                                                                                                                ",
"                                                                                                                                ",
"                                                      . . . . . . . . . . .                                                     ",
"                                                    . =.E H I I H H I I E O..                                                   ",
"                                                  . { V & - : : : : : & > D O..                                                 ",
"                                                . %.V - p u t c c s v d m 1 D O..                                               ",
"                                                . { ; p e e t d d d s d h m > E .                                               ",
"                                                . ^ * a e p o X O X o h h n , Y .                                               ",
"                                                . E = i i 2 V ^ { T F o g b & H .                                               ",
"                                                . E = i i = I . . . ~ O y k $ I .                                               ",
"                                                . ^ = i i = E . . . { O r j $ I .                                               ",
"                                                . ^ = p a = K . . . I O r j $ I .                                               ",
"                                                . ^ * p i 2 B K E K B - r j $ I .                                               ",
"                                                . { & t e e 2 = = = 2 t 8 l % E .                                               ",
"                                                . %.Z - p i i a i i i u k $ V O..                                               ",
"                                                  . X.A ; = 2 3 3 3 2 = $ V O..                                                 ",
"                                                    . X.H o f p p p d o V ^ .                                                   ",
"                                                    . . X.Z = 2 2 = * V E . .                                                   ",
"                                    N N N N N N N N # @ 4 K * p u k - V X.+ @ N N N N N N N N                                   ",
"                                  N N 5.5.5.5.5.5.5.<.>.-.E = a e w k % ^ :.>.5.5.5.5.5.5.5.N N                                 ",
"                                      N N N 5.5.5.5.5.M + ^ * i 0 w k % ^ x 1.5.5.5.5.N N N                                     ",
"                                            N N N N N   . ^ = i q j - V X.. M N N N N                                           ",
"                                                        . ^ = i q j - V X..                                                     ",
"                                                        . ^ = i 0 w k % ^ .                                                     ",
"                                                        . ^ = i 0 w k % X..                                                     ",
"                                                        . ^ = i q j - V &..                                                     ",
"                                                      . . ^ = i 6 j $ Z . .                                                     ",
"                                                        . ^ = i 9 j - B O..                                                     ",
"                                                        . ^ = i 9 7 z > { .                                                     ",
"                                                        . ^ = i 9 7 z > { .                                                     ",
"                                                        . X.; p w j - V O..                                                     ",
"                                                        . &.V - t k - F .                                                       ",
"                                                          . E < & & < ' .                                                       ",
"                                                          . *.X.^ ^ X.;..                                                       ",
"                                                            . . . . . .                                                         ",
"                                                                                                                                ",
"                                                                                                                                ",
"                                                                                                                                ",
"                                                                                                                                ",
"                                                                                                                                ",
"                                                                                                                                ",
"                                                                                                                                ",
"                                                                                                                                ",
"                                                                                                                                ",
"                                                                                                                                ",
"                                                                                                                                ",
"                                                                                                                                ",
"                                                                                                                                ",
"                                                                                                                                ",
"                                                                                                                                ",
"                                                                                                                                "
};
