/* XPM */
static char *cbaa576ba33b4eefa510355fbf998f4dBQMwsIfT6P56YlGj[] = {
/* columns rows colors chars-per-pixel */
"128 128 89 1 ",
"  c #030100",
". c #0A0200",
"X c #110100",
"o c #432600",
"O c #7C4600",
"+ c #744900",
"@ c #7E7A67",
"# c #844300",
"$ c #AD7C04",
"% c #A67E0D",
"& c #AB7C0C",
"* c #B77707",
"= c #BA7602",
"- c #B37A02",
"; c #B97800",
": c #B1780D",
"> c #A47E13",
", c #A77A1A",
"< c #AC781B",
"1 c #B07715",
"2 c #A67A22",
"3 c #C37400",
"4 c #CA7300",
"5 c #807C55",
"6 c #EEA907",
"7 c #E6AC0D",
"8 c #EEA80C",
"9 c #F5A507",
"0 c #F8A306",
"q c #F0A806",
"w c #F4A509",
"e c #FBA20C",
"r c #E4AB13",
"t c #EEA51E",
"y c #E2AC1B",
"u c #F6A213",
"i c #F8A114",
"p c #F2A21C",
"a c #EDA423",
"s c #E0AA26",
"d c #E6A52E",
"f c #ECA22A",
"g c #E2A82C",
"h c #F1A223",
"j c #E6A433",
"k c #ECA231",
"l c #FFC327",
"z c #FFC52A",
"x c #FEC634",
"c c #FDC53C",
"v c #A9A57F",
"b c #FFDC5E",
"n c #FFD664",
"m c #FFDA68",
"M c #FFDA71",
"N c #A5A395",
"B c #A4A29E",
"V c #A2A2A3",
"C c #FFEB83",
"Z c #FFEB8C",
"A c #FFEC91",
"S c #FFEC96",
"D c #FFEB99",
"F c #FFED99",
"G c #FFEB9E",
"H c #FFED9F",
"J c #FFEAA0",
"K c #FFEDA1",
"L c #FFEFA0",
"P c #FFECA5",
"I c #FFEFA7",
"U c #FFECAA",
"Y c #FFEFAA",
"T c #FFEFAB",
"R c #FFEBAC",
"E c #FFECAC",
"W c #FFEDB3",
"Q c #FFEDB4",
"! c #FBEEBB",
"~ c #FCEEB9",
"^ c #FDEEBC",
"/ c #FFF0B0",
"( c #F2EEC8",
") c #EEECDE",
"_ c #EDECE0",
"` c #ECEBE7",
"' c gray92",
"] c #EDECEA",
"[ c white",
/* pixels */
"oooooooooooooooooooooooooooooooooooooooooooooooooooooooooooooooooooooooooooooooooooooooooooooooooooooooooooooooooooooooooooooooo",
"oooooooooooooooooooooooooooooooooooooooooooooooooooooooooooooooooooooooooooooooooooooooooooooooooooooooooooooooooooooooooooooooo",
"oooooooooooooooooooooooooooooooooooooooooooooooooooooooooooooooooooooooooooooooooooooooooooooooooooooooooooooooooooooooooooooooo",
"oooooooooooooooooooooooooooooooooooooooooooooooooooooooooooooooooooooooooooooooooooooooooooooooooooooooooooooooooooooooooooooooo",
"oooooooooooooooooooooooooooooooooooooooooooooooooooooooooooooooooooooooooooooooooooooooooooooooooooooooooooooooooooooooooooooooo",
"oooooooooooooooooooooooooooooooooooooooooooooooooooooooooooooooooooooooooooooooooooooooooooooooooooooooooooooooooooooooooooooooo",
"oooooooooooooooooooooooooooooooooooooooooooooooooooooooooooooooooooooooooooooooooooooooooooooooooooooooooooooooooooooooooooooooo",
"oooooooooooooooooooooooooooooooooooooooooooooooooooooooooooooooooooooooooooooooooooooooooooooooooooooooooooooooooooooooooooooooo",
"oooooooooooooooooooooooooooooooooooooooooooooooooooooooooooooooooooooooooooooooooooooooooooooooooooooooooooooooooooooooooooooooo",
"oooooooooooooooooooooooooooooooooooooooooooooooooooooooooooooooooooooooooooooooooooooooooooooooooooooooooooooooooooooooooooooooo",
"oooooooooooooooooooooooooooooooooooooooooooooooooooooooooooooooooooooooooooooooooooooooooooooooooooooooooooooooooooooooooooooooo",
"oooooooooooooooooooooooooooooooooooooooooooooooooooooooooooooooooooooooooooooooooooooooooooooooooooooooooooooooooooooooooooooooo",
"oooooooooooooooooooooooooooooooooooooooooooooooooooooooooooooooooooooooooooooooooooooooooooooooooooooooooooooooooooooooooooooooo",
"oooooooooooooooooooooooooooooooooooooooooooooooooooooooooooooooooooooooooooooooooooooooooooooooooooooooooooooooooooooooooooooooo",
"oooooooooooooooooooooooooooooooooooooooooooooooooooooooooooooooooooooooooooooooooooooooooooooooooooooooooooooooooooooooooooooooo",
"oooooooooooooooooooooooooooooooooooooooooooooooooooooooooooooooooooooooooooooooooooooooooooooooooooooooooooooooooooooooooooooooo",
"oooooooooooooooooooooooooooooooooooooooooooooooooooooooooooooooooooooooooooooooooooooooooooooooooooooooooooooooooooooooooooooooo",
"oooooooooooooooooooooooooooooooooooooooooooooooooooooooooooooooooooooooooooooooooooooooooooooooooooooooooooooooooooooooooooooooo",
"oooooooooooooooooooooooooooooooooooooooooooooooooooooooooooooooooooooooooooooooooooooooooooooooooooooooooooooooooooooooooooooooo",
"oooooooooooooooooooooooooooooooooooooooooooooooooooooooooooooooooooooooooooooooooooooooooooooooooooooooooooooooooooooooooooooooo",
"oooooooooooooooooooooooooooooooooooooooooooooooooooooooooooooooooooooooooooooooooooooooooooooooooooooooooooooooooooooooooooooooo",
"oooooooooooooooooooooooooooooooooooooooooooooooooooooooooooooooooooooooooooooooooooooooooooooooooooooooooooooooooooooooooooooooo",
"oooooooooooooooooooooooooooooooooooooooooooooooooooooooooooooooooooooooooooooooooooooooooooooooooooooooooooooooooooooooooooooooo",
"oooooooooooooooooooooooooooooooooooooooooooooooooooooooooooooooooooooooooooooooooooooooooooooooooooooooooooooooooooooooooooooooo",
"oooooooooooooooooooooooooooooooooooooooooooooooooooooooooooooooooooooooooooooooooooooooooooooooooooooooooooooooooooooooooooooooo",
"oooooooooooooooooooooooooooooooooooooooooooooooooooooooooooooooooooooooooooooooooooooooooooooooooooooooooooooooooooooooooooooooo",
"ooooooooooooooooooooooooooooooooooooooooooooooooooVVVVVVVVVVVVVVVVVVVVVVVVVVVVVVoooooooooooooooooooooooooooooooooooooooooooooooo",
"ooooooooooooooooooooooooooooooooooooooooooooooooooVVVVVVVVVVVVVVVVVVVVVVVVVVVVVVoooooooooooooooooooooooooooooooooooooooooooooooo",
"ooooooooooooooooooooooooooooooooooooooooooooooVVVVVV    ............   ...    VVVVoooooooooooooooooooooooooooooooooooooooooooooo",
"ooooooooooooooooooooooooooooooooooooooooooooooVVVVVV    ............   ...    VVVVoooooooooooooooooooooooooooooooooooooooooooooo",
"ooooooooooooooooooooooooooooooooooooooooooooooVV    ..^^UUPPUUEEUUEEEEEEEE~~..  VVVVoooooooooooooooooooooooooooooooooooooooooooo",
"ooooooooooooooooooooooooooooooooooooooooooooooVV    ..^^UUPPUUEEUUEEEEEEEE~~..  VVVVoooooooooooooooooooooooooooooooooooooooooooo",
"ooooooooooooooooooooooooooooooooooooooooooooooVV  ..EEAA::**1111111111<<22GGWW..  VVoooooooooooooooooooooooooooooooooooooooooooo",
"ooooooooooooooooooooooooooooooooooooooooooooooVV  ..EEAA::**1111111111<<22GGWW..  VVoooooooooooooooooooooooooooooooooooooooooooo",
"ooooooooooooooooooooooooooooooooooooooooooooooVV  !!AA--ppiiffnnnnkknnkkMM,,FFWW  VVoooooooooooooooooooooooooooooooooooooooooooo",
"ooooooooooooooooooooooooooooooooooooooooooooooVV  !!AA--ppiiffnnnnkknnkkMM,,FFWW  VVoooooooooooooooooooooooooooooooooooooooooooo",
"ooooooooooooooooooooooooooooooooooooooooooooooVV  EE::ppeeiihhkkkkffhhaajjMM,,PP..VVoooooooooooooooooooooooooooooooooooooooooooo",
"ooooooooooooooooooooooooooooooooooooooooooooooVV  EE::ppeeiihhkkkkffhhaajjMM,,PP..VVoooooooooooooooooooooooooooooooooooooooooooo",
"ooooooooooooooooooooooooooooooooooooooooooooooVV  PP==iieeuu##OOOO####ffddmm&&GG..VVoooooooooooooooooooooooooooooooooooooooooooo",
"ooooooooooooooooooooooooooooooooooooooooooooooVV  PP==iieeuu###OOO####ffddmm&&GG..VVoooooooooooooooooooooooooooooooooooooooooooo",
"ooooooooooooooooooooooooooooooooooooooooooooooVV  PP==iiii==CCHHPPKKAAOOggbb&&GD..VVoooooooooooooooooooooooooooooooooooooooooooo",
"ooooooooooooooooooooooooooooooooooooooooooooooVV  PP==iiii==CCHHPPKKAAOOggbb&&GD..VVoooooooooooooooooooooooooooooooooooooooooooo",
"ooooooooooooooooooooooooooooooooooooooooooooooVV  PP==iiii==FF......PP++sscc$$GG..VVoooooooooooooooooooooooooooooooooooooooooooo",
"ooooooooooooooooooooooooooooooooooooooooooooooVV  PP==iiii==FF......PP++sscc$$GG..VVoooooooooooooooooooooooooooooooooooooooooooo",
"ooooooooooooooooooooooooooooooooooooooooooooooVV  PP==iiii==KK..  ..EE++yyxx$$DD..VVoooooooooooooooooooooooooooooooooooooooooooo",
"ooooooooooooooooooooooooooooooooooooooooooooooVV  PP==iiii==KK..  ..RE++yyxx$$DD..VVoooooooooooooooooooooooooooooooooooooooooooo",
"ooooooooooooooooooooooooooooooooooooooooooooooVV..PP==iiuu==DDXX..XXJJ++rrll$$DD..VVoooooooooooooooooooooooooooooooooooooooooooo",
"ooooooooooooooooooooooooooooooooooooooooooooooVV..PP==iiuu==DDXX..XXJJ++rrll$$DD..VVoooooooooooooooooooooooooooooooooooooooooooo",
"ooooooooooooooooooooooooooooooooVVVVVVVVVVVVVVVV..PP==uuii33CCSSDDAACC--77ll$$GG..VVVVVVVVVVVVVVVVoooooooooooooooooooooooooooooo",
"ooooooooooooooooooooooooooooooooVVVVVVVVVVVVVVVV..PP==uuii33CCASDDAACC--77ll$$GG..VVVVVVVVVVVVVVVVoooooooooooooooooooooooooooooo",
"ooooooooooooooooooooooooooooooooVV            VV..EE::ppuupp;;------==aarrxx%%PP..VVVV          VVVVoooooooooooooooooooooooooooo",
"ooooooooooooooooooooooooooooooooVV            VV..EE::ppuupp;;:-----==aarrxx%%PP..VVVV          VVVVoooooooooooooooooooooooooooo",
"ooooooooooooooooooooooooooooooooVV  VVVVVVVV      !!AA--tpuupphhhhppppttcc$$AAWW      VVVVVVVV    VVoooooooooooooooooooooooooooo",
"ooooooooooooooooooooooooooooooooVV  VVVVVVVV      !!AA--tpuupphhhhppppttcc$$AAWW      VVVVVVVV    VVoooooooooooooooooooooooooooo",
"ooooooooooooooooooooooooooooooooVV  VV[[[[VVVV    ..UUZZ--334444444444==$$ZZUU..    VVVV[[[[VV    VVoooooooooooooooooooooooooooo",
"ooooooooooooooooooooooooooooooooVV  VV[[[[VVVV    ..UUZZ--334444444444==$$ZZUU..    VVVV[[[[VV    VVoooooooooooooooooooooooooooo",
"ooooooooooooooooooooooooooooooooVV    VV[[[[[[VVBB  ..WWSSOOaaiiiippffOOAAUU..  BBVV[[[[[[VV    VVVVoooooooooooooooooooooooooooo",
"ooooooooooooooooooooooooooooooooVV    VV[[[[[[VVBB  ..WWSSOOaaiiiippffOOZAUU..  BBVV[[[[[[VV    VVVVoooooooooooooooooooooooooooo",
"ooooooooooooooooooooooooooooooooVVVV    VVVV[[[[[[BBNN..//AA==444433;;CCHH..NNVV[[[[[[VVVV    VVVVoooooooooooooooooooooooooooooo",
"ooooooooooooooooooooooooooooooooVVVV    VVVV[[[[[[BBNN..//AA==444433;;CCKK..NNVV[[[[[[VVVV    VVVVoooooooooooooooooooooooooooooo",
"ooooooooooooooooooooooooooooooooooVVVV      VVVV[[]]``@@..HH==uuwwzz--CCPP55))''[[VVVV    VVVVVVoooooooooooooooooooooooooooooooo",
"ooooooooooooooooooooooooooooooooooVVVV      VVVV[[]]``@@..HH==uuwwzz--CCPP55))''[[VVVV    VVVVVVoooooooooooooooooooooooooooooooo",
"ooooooooooooooooooooooooooooooooooooVVVVVV      VVVVVV__55PP==uu9988cc>>UU((NNVVVV    VVVVVVoooooooooooooooooooooooooooooooooooo",
"ooooooooooooooooooooooooooooooooooooVVVVVV      VVVVVV__55PP==uu9988cc>>UU((NNVVVV    VVVVVVoooooooooooooooooooooooooooooooooooo",
"ooooooooooooooooooooooooooooooooooooooooVVVVVV        NN55PP==uu9988cc>>UUvv        VVVVoooooooooooooooooooooooooooooooooooooooo",
"ooooooooooooooooooooooooooooooooooooooooVVVVVV        NN55PP==uu9988cc>>UUvv        VVVVoooooooooooooooooooooooooooooooooooooooo",
"ooooooooooooooooooooooooooooooooooooooooooooVVVVVVVV    ..PP==uu99ll--CCUU..  VVVVVVVVoooooooooooooooooooooooooooooooooooooooooo",
"ooooooooooooooooooooooooooooooooooooooooooooVVVVVVVV    ..PP==uu99ll--CCUU..  VVVVVVVVoooooooooooooooooooooooooooooooooooooooooo",
"ooooooooooooooooooooooooooooooooooooooooooooooooooVVVVVV  PP==uu99ll--CCUU .VVVVoooooooooooooooooooooooooooooooooooooooooooooooo",
"ooooooooooooooooooooooooooooooooooooooooooooooooooVVVVVV  PP==uu99ll--CCUU .VVVVoooooooooooooooooooooooooooooooooooooooooooooooo",
"ooooooooooooooooooooooooooooooooooooooooooooooooooooooVV  PP==uu9988cc>>UU  VVoooooooooooooooooooooooooooooooooooooooooooooooooo",
"ooooooooooooooooooooooooooooooooooooooooooooooooooooooVV  PP==uu9988cc>>UU  VVoooooooooooooooooooooooooooooooooooooooooooooooooo",
"ooooooooooooooooooooooooooooooooooooooooooooooooooooooVV  PP==uu9988cc>>UU  VVoooooooooooooooooooooooooooooooooooooooooooooooooo",
"ooooooooooooooooooooooooooooooooooooooooooooooooooooooVV  PP==uu9988cc>>UU  VVoooooooooooooooooooooooooooooooooooooooooooooooooo",
"ooooooooooooooooooooooooooooooooooooooooooooooooooooooVV. PP==uu99ll--CCEE  VVoooooooooooooooooooooooooooooooooooooooooooooooooo",
"ooooooooooooooooooooooooooooooooooooooooooooooooooooooVV. PP==uu99ll--CCEE  VVoooooooooooooooooooooooooooooooooooooooooooooooooo",
"ooooooooooooooooooooooooooooooooooooooooooooooooooooooVV..PP==uu66ll$$AZXX  VVoooooooooooooooooooooooooooooooooooooooooooooooooo",
"ooooooooooooooooooooooooooooooooooooooooooooooooooooooVV .PP==uu66ll$$AAXX  VVoooooooooooooooooooooooooooooooooooooooooooooooooo",
"ooooooooooooooooooooooooooooooooooooooooooooooooooooooVV  PP==uuqqll--ZZ~~  VVoooooooooooooooooooooooooooooooooooooooooooooooooo",
"ooooooooooooooooooooooooooooooooooooooooooooooooooooooVV  PP==uuqqll--ZZ~~  VVoooooooooooooooooooooooooooooooooooooooooooooooooo",
"ooooooooooooooooooooooooooooooooooooooooooooooooooooooVV  PP==uu00wwxx%%EE  VVoooooooooooooooooooooooooooooooooooooooooooooooooo",
"ooooooooooooooooooooooooooooooooooooooooooooooooooooooVV  PP==uu00wwxx%%EE  VVoooooooooooooooooooooooooooooooooooooooooooooooooo",
"ooooooooooooooooooooooooooooooooooooooooooooooooooooooVV  PP**uu00wwxx%%EE  VVoooooooooooooooooooooooooooooooooooooooooooooooooo",
"ooooooooooooooooooooooooooooooooooooooooooooooooooooooVV  PP**uu00wwxx%%UU  VVoooooooooooooooooooooooooooooooooooooooooooooooooo",
"ooooooooooooooooooooooooooooooooooooooooooooooooooooooVV .UU::tt88ll--ZZ~~  VVoooooooooooooooooooooooooooooooooooooooooooooooooo",
"ooooooooooooooooooooooooooooooooooooooooooooooooooooooVV  UU::tt88ll--ZZ~~  VVoooooooooooooooooooooooooooooooooooooooooooooooooo",
"ooooooooooooooooooooooooooooooooooooooooooooooooooooooVV  QQCC--yyxx&&DD..  VVoooooooooooooooooooooooooooooooooooooooooooooooooo",
"ooooooooooooooooooooooooooooooooooooooooooooooooooooooVV  QQCC--yyxx&&DD..  VVoooooooooooooooooooooooooooooooooooooooooooooooooo",
"ooooooooooooooooooooooooooooooooooooooooooooooooooooooVV  ..FF%%$$$$>>HH..VVVVoooooooooooooooooooooooooooooooooooooooooooooooooo",
"ooooooooooooooooooooooooooooooooooooooooooooooooooooooVV  ..FF%%$$$$>>HH..VVVVoooooooooooooooooooooooooooooooooooooooooooooooooo",
"ooooooooooooooooooooooooooooooooooooooooooooooooooooooVVVV  QQKKGGHHKKQQ  VVoooooooooooooooooooooooooooooooooooooooooooooooooooo",
"ooooooooooooooooooooooooooooooooooooooooooooooooooooooVVVV  QQKKGGHHKKQQ  VVoooooooooooooooooooooooooooooooooooooooooooooooooooo",
"ooooooooooooooooooooooooooooooooooooooooooooooooooooooooVV    ........    VVoooooooooooooooooooooooooooooooooooooooooooooooooooo",
"ooooooooooooooooooooooooooooooooooooooooooooooooooooooooVV    ........    VVoooooooooooooooooooooooooooooooooooooooooooooooooooo",
"ooooooooooooooooooooooooooooooooooooooooooooooooooooooooVVVVVVVVVVVVVVVVVVVVoooooooooooooooooooooooooooooooooooooooooooooooooooo",
"ooooooooooooooooooooooooooooooooooooooooooooooooooooooooVVVVVVVVVVVVVVVVVVVVoooooooooooooooooooooooooooooooooooooooooooooooooooo",
"oooooooooooooooooooooooooooooooooooooooooooooooooooooooooooooooooooooooooooooooooooooooooooooooooooooooooooooooooooooooooooooooo",
"oooooooooooooooooooooooooooooooooooooooooooooooooooooooooooooooooooooooooooooooooooooooooooooooooooooooooooooooooooooooooooooooo",
"oooooooooooooooooooooooooooooooooooooooooooooooooooooooooooooooooooooooooooooooooooooooooooooooooooooooooooooooooooooooooooooooo",
"oooooooooooooooooooooooooooooooooooooooooooooooooooooooooooooooooooooooooooooooooooooooooooooooooooooooooooooooooooooooooooooooo",
"oooooooooooooooooooooooooooooooooooooooooooooooooooooooooooooooooooooooooooooooooooooooooooooooooooooooooooooooooooooooooooooooo",
"oooooooooooooooooooooooooooooooooooooooooooooooooooooooooooooooooooooooooooooooooooooooooooooooooooooooooooooooooooooooooooooooo",
"oooooooooooooooooooooooooooooooooooooooooooooooooooooooooooooooooooooooooooooooooooooooooooooooooooooooooooooooooooooooooooooooo",
"oooooooooooooooooooooooooooooooooooooooooooooooooooooooooooooooooooooooooooooooooooooooooooooooooooooooooooooooooooooooooooooooo",
"oooooooooooooooooooooooooooooooooooooooooooooooooooooooooooooooooooooooooooooooooooooooooooooooooooooooooooooooooooooooooooooooo",
"oooooooooooooooooooooooooooooooooooooooooooooooooooooooooooooooooooooooooooooooooooooooooooooooooooooooooooooooooooooooooooooooo",
"oooooooooooooooooooooooooooooooooooooooooooooooooooooooooooooooooooooooooooooooooooooooooooooooooooooooooooooooooooooooooooooooo",
"oooooooooooooooooooooooooooooooooooooooooooooooooooooooooooooooooooooooooooooooooooooooooooooooooooooooooooooooooooooooooooooooo",
"oooooooooooooooooooooooooooooooooooooooooooooooooooooooooooooooooooooooooooooooooooooooooooooooooooooooooooooooooooooooooooooooo",
"oooooooooooooooooooooooooooooooooooooooooooooooooooooooooooooooooooooooooooooooooooooooooooooooooooooooooooooooooooooooooooooooo",
"oooooooooooooooooooooooooooooooooooooooooooooooooooooooooooooooooooooooooooooooooooooooooooooooooooooooooooooooooooooooooooooooo",
"oooooooooooooooooooooooooooooooooooooooooooooooooooooooooooooooooooooooooooooooooooooooooooooooooooooooooooooooooooooooooooooooo",
"oooooooooooooooooooooooooooooooooooooooooooooooooooooooooooooooooooooooooooooooooooooooooooooooooooooooooooooooooooooooooooooooo",
"oooooooooooooooooooooooooooooooooooooooooooooooooooooooooooooooooooooooooooooooooooooooooooooooooooooooooooooooooooooooooooooooo",
"oooooooooooooooooooooooooooooooooooooooooooooooooooooooooooooooooooooooooooooooooooooooooooooooooooooooooooooooooooooooooooooooo",
"oooooooooooooooooooooooooooooooooooooooooooooooooooooooooooooooooooooooooooooooooooooooooooooooooooooooooooooooooooooooooooooooo",
"oooooooooooooooooooooooooooooooooooooooooooooooooooooooooooooooooooooooooooooooooooooooooooooooooooooooooooooooooooooooooooooooo",
"oooooooooooooooooooooooooooooooooooooooooooooooooooooooooooooooooooooooooooooooooooooooooooooooooooooooooooooooooooooooooooooooo",
"oooooooooooooooooooooooooooooooooooooooooooooooooooooooooooooooooooooooooooooooooooooooooooooooooooooooooooooooooooooooooooooooo",
"oooooooooooooooooooooooooooooooooooooooooooooooooooooooooooooooooooooooooooooooooooooooooooooooooooooooooooooooooooooooooooooooo",
"oooooooooooooooooooooooooooooooooooooooooooooooooooooooooooooooooooooooooooooooooooooooooooooooooooooooooooooooooooooooooooooooo",
"oooooooooooooooooooooooooooooooooooooooooooooooooooooooooooooooooooooooooooooooooooooooooooooooooooooooooooooooooooooooooooooooo",
"oooooooooooooooooooooooooooooooooooooooooooooooooooooooooooooooooooooooooooooooooooooooooooooooooooooooooooooooooooooooooooooooo",
"oooooooooooooooooooooooooooooooooooooooooooooooooooooooooooooooooooooooooooooooooooooooooooooooooooooooooooooooooooooooooooooooo",
"oooooooooooooooooooooooooooooooooooooooooooooooooooooooooooooooooooooooooooooooooooooooooooooooooooooooooooooooooooooooooooooooo",
"oooooooooooooooooooooooooooooooooooooooooooooooooooooooooooooooooooooooooooooooooooooooooooooooooooooooooooooooooooooooooooooooo",
"oooooooooooooooooooooooooooooooooooooooooooooooooooooooooooooooooooooooooooooooooooooooooooooooooooooooooooooooooooooooooooooooo",
"oooooooooooooooooooooooooooooooooooooooooooooooooooooooooooooooooooooooooooooooooooooooooooooooooooooooooooooooooooooooooooooooo"
};
