/* XPM */
static char *_8c1b82af0674eeea67744319bc004d8lDHM3DtfMO06pVt0[] = {
/* columns rows colors chars-per-pixel */
"64 64 114 2 ",
"   c #000000",
".  c #0A0200",
"X  c #110100",
"o  c #7C4500",
"O  c #754900",
"+  c #844400",
"@  c #884300",
"#  c #AD7C04",
"$  c #A67E0D",
"%  c #AC7C0B",
"&  c #B67706",
"*  c #BA7602",
"=  c #B37B01",
"-  c #B0770C",
";  c #B1790A",
":  c #AF7716",
">  c #A47E13",
",  c #A87B16",
"<  c #A77A1F",
"1  c #AD781A",
"2  c #B17713",
"3  c #C37500",
"4  c #CA7300",
"5  c #847C4E",
"6  c #807C57",
"7  c #EEA906",
"8  c #E6AB0F",
"9  c #EEA80C",
"0  c #F5A506",
"q  c #F9A406",
"w  c #F0A806",
"e  c #F3A608",
"r  c #FAA20D",
"t  c #E5AC14",
"y  c #EEA51E",
"u  c #E2AC1B",
"i  c #F6A213",
"p  c #F8A114",
"a  c #F3A21C",
"s  c #F8A018",
"d  c #EDA423",
"f  c #E0AA26",
"g  c #E5A62C",
"h  c #ECA32B",
"j  c #F0A223",
"k  c #F0A12A",
"l  c #E6A433",
"z  c #ECA231",
"x  c #FFC327",
"c  c #FFC52A",
"v  c #FEC535",
"b  c #FDC53C",
"n  c #AAA57B",
"m  c #FFDC5E",
"M  c #FFD665",
"N  c #FFDA68",
"B  c #FFDA71",
"V  c #ABA384",
"C  c #ACA289",
"Z  c #A5A394",
"A  c #A3A29D",
"S  c #A2A2A2",
"D  c #FFEB83",
"F  c #FFEC8C",
"G  c #FFEC92",
"H  c #FFEB9B",
"J  c #FFF091",
"K  c #FFF09E",
"L  c #FFEDA4",
"P  c #FFEEAA",
"I  c #FFECAC",
"U  c #FFEDAC",
"Y  c #FEEFAE",
"T  c #FFEFAB",
"R  c #FFF0A5",
"E  c #FFF0AA",
"W  c #FFF0AB",
"Q  c #FFECB1",
"!  c #FDEFB2",
"~  c #FDEEB7",
"^  c #FEEEB2",
"/  c #F5EFBD",
"(  c #FBEEBA",
")  c #FCEEBA",
"_  c #F9F0B5",
"`  c #FAF0B5",
"'  c #F7F0BA",
"]  c #F6F0BE",
"[  c #F3EDC9",
"{  c #F5EDC9",
"}  c #F1EECF",
"|  c #F3EECE",
" . c #F4EFCF",
".. c #F6F0C0",
"X. c #EFECDB",
"o. c #EEEDDB",
"O. c #EEECDD",
"+. c #EEECDF",
"@. c #F2EFD0",
"#. c #F2EED1",
"$. c #FFFFD8",
"%. c #FFFFDD",
"&. c #FFFFE8",
"*. c #FFFFEC",
"=. c #FFFFF1",
"-. c #FFFFF3",
";. c #FFFFF4",
":. c #FFFFF8",
">. c #FFFFFD",
",. c #FFFDFE",
"<. c #FEFEFE",
"1. c #FFFEFF",
"2. c #FEFFFF",
"3. c white",
/* pixels */
"                                                                                                                                ",
"                                                                                                                                ",
"                                                                                                                                ",
"                                                                                                                                ",
"                                                                                                                                ",
"                                                                                                                                ",
"                                                                                                                                ",
"                                                                                                                                ",
"                                                                                                                                ",
"                                                                                                                                ",
"                                                                                                                                ",
"                                                                                                                                ",
"                                                                                                                                ",
"                                                                                                                                ",
"                                                                                                                                ",
"                                                                                                                                ",
"                                                                                                                                ",
"                                                        #.. . . . #..   | .                                                     ",
"                                                . | . . ] . . . . ' . . ' . .                                                   ",
"                                                . ... ~ L H P P L L P P L E .  .                                                ",
"                                                . ` P G ; * 2 : 2 2 2 1 < G K ` .                                               ",
"                                                . Y F = a s h M M z M z B , F R .                                               ",
"                                                . P - a r r j z z h j d l B , L .                                               ",
"                                          S S   . P * p r i @ o o + @ h g N % H .   S S                                         ",
"                                          S S   . P * p p * F H P L G o g m % H .   S S                                         ",
"                                        S 3.3.Z . P * p p * H . . . L O f b % H . S 3.3.S                                       ",
"                                        S 3.3.=.V P * p p * L . . . Y O u v # H C 3.3.3.S                                       ",
"                                        S 3.3.;.n P * p p * H X . X L O t c # H C 3.3.3.S                                       ",
"                                          S 3.;.V P * p p 3 D G H G D = 8 x # H C 3.3.S                                         ",
"                                          S 3.;.V Y - a p s * ; ; = * d t v $ L C 3.3.S                                         ",
"                                            S :.&.( G = a s a d j a a y b # J ^ *.3.S                                           ",
"                                            S A =.%.P F & 3 4 4 4 4 4 * % F P $.=.S S                                           ",
"                                              S A X.{ ^ G o d s p a h o G P [ O.A S                                             ",
"                                                S A O.[ Y F * 4 4 3 * D L / X.S S                                               ",
"                                                  S A Z 5 H * p r c = D P n Z S                                                 ",
"                                                        6 P * p 0 9 b > P .                                                     ",
"                                                        . P * i 0 9 b > P .                                                     ",
"                                                        . P * i 0 x = D P .                                                     ",
"                                                        . P * i 0 x = D E .                                                     ",
"                                                        . P * i 0 9 b > P .                                                     ",
"                                                        . P * i 0 9 b > P .                                                     ",
"                                                        . L * i e x = D ^ .                                                     ",
"                                                        . P * i 7 x # G X .                                                     ",
"                                                        . P * i w x = F ) .                                                     ",
"                                                        . P * p q e v $ Y .                                                     ",
"                                                        . P & p q e v $ Y .                                                     ",
"                                                        . P - y 9 x = G ( .                                                     ",
"                                                        . ^ F = u v % H .                                                       ",
"                                                          . H $ # # > L .                                                       ",
"                                                          . ^ H H H L ^ .                                                       ",
"                                                            . . . . . .                                                         ",
"                                                                                                                                ",
"                                                                                                                                ",
"                                                                                                                                ",
"                                                                                                                                ",
"                                                                                                                                ",
"                                                                                                                                ",
"                                                                                                                                ",
"                                                                                                                                ",
"                                                                                                                                ",
"                                                                                                                                ",
"                                                                                                                                ",
"                                                                                                                                ",
"                                                                                                                                "
};
